<?xml version="1.0" encoding="utf-8"?>
<!-- Generator: Adobe Illustrator 24.1.2, SVG Export Plug-In . SVG Version: 6.00 Build 0)  -->
<svg version="1.1" id="Layer_1" xmlns="http://www.w3.org/2000/svg" xmlns:xlink="http://www.w3.org/1999/xlink" x="0px" y="0px"
	 viewBox="0 0 50 50" style="enable-background:new 0 0 50 50;" xml:space="preserve">
<style type="text/css">
	.st0{fill:#2D2D2D;}
	.st1{fill:#5FBF1B;}
	.st2{fill:#038C33;}
	.st3{fill:#027353;}
</style>
<path id="path4" class="st0" d="M44.77,38.69c-0.74,1.71-1.62,3.29-2.63,4.74c-1.39,1.98-2.52,3.34-3.39,4.1
	c-1.36,1.25-2.81,1.88-4.36,1.92c-1.12,0-2.46-0.32-4.03-0.96c-1.57-0.64-3.02-0.96-4.34-0.96c-1.39,0-2.87,0.32-4.46,0.96
	c-1.59,0.64-2.87,0.98-3.85,1.01c-1.49,0.06-2.98-0.59-4.46-1.97c-0.95-0.83-2.13-2.24-3.55-4.25c-1.52-2.14-2.77-4.62-3.75-7.46
	c-1.05-3.06-1.58-6.02-1.58-8.89c0-3.28,0.71-6.12,2.13-8.49c1.12-1.91,2.6-3.41,4.46-4.51c1.86-1.1,3.87-1.67,6.03-1.7
	c1.18,0,2.74,0.37,4.67,1.09c1.92,0.72,3.16,1.09,3.7,1.09c0.4,0,1.78-0.43,4.1-1.28c2.2-0.79,4.06-1.12,5.58-0.99
	c4.12,0.33,7.22,1.96,9.28,4.89c-3.69,2.23-5.51,5.36-5.47,9.38c0.03,3.13,1.17,5.73,3.4,7.79c1.01,0.96,2.14,1.7,3.39,2.23
	C45.36,37.2,45.08,37.96,44.77,38.69L44.77,38.69z M35.32,1.48c0,2.45-0.9,4.74-2.68,6.86c-2.15,2.52-4.76,3.97-7.58,3.74
	c-0.04-0.29-0.06-0.6-0.06-0.93c0-2.35,1.02-4.87,2.84-6.93c0.91-1.04,2.06-1.91,3.46-2.6c1.4-0.68,2.72-1.06,3.96-1.12
	C35.3,0.83,35.32,1.16,35.32,1.48L35.32,1.48z"/>
</svg>
