<?xml version="1.0" encoding="utf-8"?>
<!-- Generator: Adobe Illustrator 24.1.2, SVG Export Plug-In . SVG Version: 6.00 Build 0)  -->
<svg version="1.1" id="Layer_1" xmlns="http://www.w3.org/2000/svg" xmlns:xlink="http://www.w3.org/1999/xlink" x="0px" y="0px"
	 viewBox="0 0 50 50" style="enable-background:new 0 0 50 50;" xml:space="preserve">
<style type="text/css">
	.st0{fill:#2D2D2D;}
	.st1{fill:#5FBF1B;}
	.st2{fill:#038C33;}
	.st3{fill:#027353;}
</style>
<path class="st0" d="M33.58,28.06c-2.75,0-4.07,1.53-8.58,1.53s-5.82-1.53-8.58-1.53c-7.1,0-12.86,5.76-12.86,12.86v3.98
	c0,2.54,2.06,4.59,4.59,4.59h33.69c2.54,0,4.59-2.06,4.59-4.59v-3.98C46.44,33.82,40.68,28.06,33.58,28.06z M43.38,44.91
	c0,0.84-0.69,1.53-1.53,1.53H8.16c-0.84,0-1.53-0.69-1.53-1.53v-3.98c0-5.41,4.39-9.8,9.8-9.8c1.88,0,3.74,1.53,8.58,1.53
	c4.82,0,6.7-1.53,8.58-1.53c5.41,0,9.8,4.39,9.8,9.8V44.91z M25,25c6.77,0,12.25-5.48,12.25-12.25S31.77,0.5,25,0.5
	S12.75,5.98,12.75,12.75S18.23,25,25,25z M25,3.56c5.06,0,9.19,4.12,9.19,9.19s-4.12,9.19-9.19,9.19s-9.19-4.12-9.19-9.19
	S19.94,3.56,25,3.56z"/>
</svg>
