<?xml version="1.0" encoding="utf-8"?>
<!-- Generator: Adobe Illustrator 24.1.2, SVG Export Plug-In . SVG Version: 6.00 Build 0)  -->
<svg version="1.1" id="Layer_1" xmlns="http://www.w3.org/2000/svg" xmlns:xlink="http://www.w3.org/1999/xlink" x="0px" y="0px"
	 viewBox="0 0 50 50" style="enable-background:new 0 0 50 50;" xml:space="preserve">
<style type="text/css">
	.st0{fill:#2D2D2D;}
	.st1{fill:#5FBF1B;}
	.st2{fill:#038C33;}
	.st3{fill:#027353;}
</style>
<path class="st0" d="M37.32,25c4.08,0,7.39-3.31,7.39-7.39s-3.31-7.39-7.39-7.39s-7.39,3.31-7.39,7.39S33.24,25,37.32,25z
	 M37.32,12.68c2.72,0,4.93,2.21,4.93,4.93s-2.21,4.93-4.93,4.93s-4.93-2.21-4.93-4.93S34.6,12.68,37.32,12.68z M15.14,25
	c4.77,0,8.62-3.86,8.62-8.62s-3.86-8.62-8.62-8.62s-8.62,3.86-8.62,8.62S10.38,25,15.14,25z M15.14,10.21c3.4,0,6.16,2.76,6.16,6.16
	s-2.76,6.16-6.16,6.16s-6.16-2.76-6.16-6.16S11.75,10.21,15.14,10.21z M21.31,26.54c-2.57,0-3.21,0.92-6.17,0.92
	s-3.6-0.92-6.17-0.92c-2.8,0-5.51,1.25-7.11,3.61c-0.95,1.42-1.51,3.12-1.51,4.95v3.45c0,2.04,1.66,3.7,3.7,3.7h22.18
	c2.04,0,3.7-1.66,3.7-3.7V35.1c0-1.83-0.55-3.53-1.51-4.95C26.83,27.79,24.11,26.54,21.31,26.54L21.31,26.54z M27.46,38.55
	c0,0.68-0.55,1.23-1.23,1.23H4.05c-0.68,0-1.23-0.55-1.23-1.23V35.1c0-1.28,0.38-2.52,1.09-3.57C4.97,29.95,6.86,29,8.97,29
	c2.11,0,2.86,0.92,6.18,0.92S19.21,29,21.31,29s4,0.95,5.06,2.53c0.71,1.06,1.09,2.29,1.09,3.57L27.46,38.55L27.46,38.55z
	 M48.39,29.71c-1.33-1.97-3.6-3.01-5.92-3.01c-2.14,0-2.68,0.77-5.14,0.77c-2.46,0-3-0.77-5.14-0.77c-1.02,0-2.01,0.23-2.93,0.62
	c1.17,1.19,1.42,1.82,1.56,2.05c0.44-0.12,0.89-0.2,1.38-0.2c1.68,0,2.31,0.77,5.14,0.77c2.83,0,3.47-0.77,5.14-0.77
	c1.62,0,3.06,0.72,3.88,1.93c0.55,0.81,0.84,1.76,0.84,2.75v2.86c0,0.34-0.28,0.62-0.62,0.62H32.39c0,1.36,0.02,1.73-0.12,2.46
	h14.29c1.7,0,3.08-1.38,3.08-3.08v-2.87C49.64,32.3,49.18,30.88,48.39,29.71z"/>
</svg>
