<svg xmlns="http://www.w3.org/2000/svg" width="200" height="200" viewBox="0 0 200 200">
  <defs>
    <style>
      .cls-1 {
        fill: #0ebf4c;
        fill-rule: evenodd;
      }
    </style>
  </defs>
  <path id="beta_dark.svg" data-name="beta~dark.svg" class="cls-1" d="M1304.52,823.994h-3.05V808.446h2.03a6.767,6.767,0,0,0,5.61-2.461,10.252,10.252,0,0,0,1.98-6.625,8.7,8.7,0,0,0-2.24-6.413,7.961,7.961,0,0,0-5.88-2.246q-4.545,0-6.65,2.861t-2.11,8.63v38.53a14.2,14.2,0,0,0,4.67,2,21.446,21.446,0,0,0,5.53.83q5.13,0,8.1-2.592c1.98-1.73,2.96-4.322,2.96-7.776a8.406,8.406,0,0,0-2.88-6.706Q1309.7,824,1304.52,823.994ZM1305,726a100,100,0,1,0,100,100A100,100,0,0,0,1305,726Zm24.69,127.25q-7.005,6.708-18.7,6.71a49.194,49.194,0,0,1-9.57-.883,28.784,28.784,0,0,1-7.21-2.27V885.18h-20.9V800.32q0-11.969,7.99-18.566t22.31-6.6q13.26,0,20.76,5.611,7.515,5.609,7.51,15.548,0,7.91-3.93,12.451t-11.09,5.721v0.427q10.26,1.336,15.04,6.384t4.79,13.867Q1336.69,846.546,1329.69,853.25Z" transform="translate(-1205 -726)"/>
</svg>
