<svg xmlns="http://www.w3.org/2000/svg" width="200" height="198" viewBox="0 0 200 198">
  <defs>
    <style>
      .cls-1 {
        fill: #0c946e;
        fill-rule: evenodd;
      }
    </style>
  </defs>
  <path id="branch_dark.svg" data-name="branch~dark.svg" class="cls-1" d="M1520.5,877.475a52.926,52.926,0,0,1,0-102.956V727a99.758,99.758,0,0,0,0,198V877.475Zm25-102.956a52.831,52.831,0,0,1,34.62,75.876L1608,878.227v13.75A99.7,99.7,0,0,0,1545.5,727v47.524ZM1504.87,826a28.13,28.13,0,1,0,28.13-28.07A28.134,28.134,0,0,0,1504.87,826ZM1583,888.558l-19.36-19.323a52.829,52.829,0,0,1-18.14,8.24V925a99.429,99.429,0,0,0,37.5-12.581v-23.86Z" transform="translate(-1433 -727)"/>
</svg>
