<svg xmlns="http://www.w3.org/2000/svg" width="200" height="198" viewBox="0 0 200 198">
  <defs>
    <style>
      .cls-1 {
        fill: #027353;
        fill-rule: evenodd;
      }
    </style>
  </defs>
  <path id="branch.svg" class="cls-1" d="M579.5,879.475a52.928,52.928,0,0,1,0-102.956V729a99.758,99.758,0,0,0,0,198V879.475Zm25-102.956A53.093,53.093,0,0,1,645.125,828a52.561,52.561,0,0,1-6.008,24.4L667,880.227v13.75A99.7,99.7,0,0,0,604.5,729v47.524ZM563.875,828A28.125,28.125,0,1,0,592,799.927,28.13,28.13,0,0,0,563.875,828ZM642,890.558l-19.359-19.323a52.893,52.893,0,0,1-18.141,8.24V927A99.459,99.459,0,0,0,642,914.418v-23.86Z" transform="translate(-492 -729)"/>
</svg>
