<svg xmlns="http://www.w3.org/2000/svg" width="200" height="198" viewBox="0 0 200 198">
  <defs>
    <style>
      .cls-1 {
        fill: #0c946e;
        fill-rule: evenodd;
      }
    </style>
  </defs>
  <path id="branch_dark.svg" data-name="branch~dark.svg" class="cls-1" d="M1528.5,887.475a52.929,52.929,0,0,1,0-102.956V737a99.758,99.758,0,0,0,0,198V887.475Zm25-102.956a52.852,52.852,0,0,1,34.62,75.876L1616,888.227v13.75A99.7,99.7,0,0,0,1553.5,737v47.524ZM1512.88,836a28.12,28.12,0,1,0,28.12-28.07A28.125,28.125,0,0,0,1512.88,836ZM1591,898.558l-19.36-19.323a52.829,52.829,0,0,1-18.14,8.24V935a99.429,99.429,0,0,0,37.5-12.581v-23.86Z" transform="translate(-1441 -737)"/>
</svg>
