<svg xmlns="http://www.w3.org/2000/svg" width="200" height="200" viewBox="0 0 200 200">
  <defs>
    <style>
      .cls-1 {
        fill: #ec8329;
        fill-rule: evenodd;
      }
    </style>
  </defs>
  <path id="circle_question_mark_dark.svg" data-name="circle_question_mark~dark.svg" class="cls-1" d="M1296,489a100,100,0,1,0,100,100A100,100,0,0,0,1296,489Zm8.92,154.03q-3.93,3.54-10.73,3.54-7.02,0-10.98-3.5t-3.97-10.026q0-6.513,3.79-10.055t11.16-3.544q7.08,0,10.87,3.577t3.79,10.022Q1308.85,639.493,1304.92,643.03Zm23.09-62.577q-4.005,6.268-12.79,11.865-7.425,4.817-9.31,7.048a7.94,7.94,0,0,0-1.88,5.273v3.613h-21.74v-6.091a22.63,22.63,0,0,1,2.83-11.723q2.835-4.777,10.06-9.313a37.743,37.743,0,0,0,8.25-6.515,9.867,9.867,0,0,0,2.52-6.657,5.353,5.353,0,0,0-2.7-4.712,12.741,12.741,0,0,0-7.01-1.733q-10.7,0-25,7.576l-9.84-19.266a73.313,73.313,0,0,1,36.83-10.055q15.78,0,24.79,6.942,8.985,6.939,8.99,18.908A26.969,26.969,0,0,1,1328.01,580.453Z" transform="translate(-1196 -489)"/>
</svg>
