<?xml version="1.0" encoding="utf-8"?>
<!-- Generator: Adobe Illustrator 24.1.2, SVG Export Plug-In . SVG Version: 6.00 Build 0)  -->
<svg version="1.1" id="Layer_1" xmlns="http://www.w3.org/2000/svg" xmlns:xlink="http://www.w3.org/1999/xlink" x="0px" y="0px"
	 viewBox="0 0 50 50" style="enable-background:new 0 0 50 50;" xml:space="preserve">
<style type="text/css">
	.st0{fill:#2D2D2D;}
	.st1{fill:#5FBF1B;}
	.st2{fill:#038C33;}
	.st3{fill:#027353;}
</style>
<path class="st0" d="M25,0.5C11.47,0.5,0.5,11.47,0.5,25S11.47,49.5,25,49.5S49.5,38.53,49.5,25S38.53,0.5,25,0.5z M46.34,25
	c0,11.73-9.49,21.34-21.34,21.34C13.27,46.34,3.66,36.84,3.66,25C3.66,13.27,13.16,3.66,25,3.66C36.73,3.66,46.34,13.16,46.34,25z
	 M31.63,33.72l-8.02-5.83c-0.31-0.23-0.48-0.58-0.48-0.96V11.17c0-0.65,0.53-1.19,1.19-1.19h1.38c0.65,0,1.19,0.53,1.19,1.19v14.45
	l6.96,5.07c0.53,0.39,0.64,1.13,0.26,1.66l-0.81,1.12C32.9,33.99,32.16,34.11,31.63,33.72L31.63,33.72z"/>
</svg>
