<svg id="Layer_1" data-name="Layer 1" xmlns="http://www.w3.org/2000/svg" viewBox="0 0 50 50">
  <defs>
    <style>
      .cls-1 {
        fill: #1d1d1d;
        fill-rule: evenodd;
      }
    </style>
  </defs>
  <path class="cls-1" d="M23.45,1.51a24.13,24.13,0,0,0-6.08,47C18.58,48.72,19,48,19,47.33s0-2.09,0-4.1C12.27,44.69,10.86,40,10.86,40c-1.1-2.79-2.68-3.53-2.68-3.53C6,35,8.34,35,8.34,35A5.06,5.06,0,0,1,12,37.48c2.15,3.69,5.65,2.63,7,2a5.16,5.16,0,0,1,1.54-3.23c-5.36-.61-11-2.68-11-11.93a9.3,9.3,0,0,1,2.49-6.47,8.68,8.68,0,0,1,.23-6.39s2-.65,6.64,2.48A22.65,22.65,0,0,1,31,14c4.61-3.13,6.63-2.48,6.63-2.48a8.65,8.65,0,0,1,.24,6.39,9.3,9.3,0,0,1,2.48,6.47c0,9.27-5.64,11.31-11,11.91A5.76,5.76,0,0,1,31,40.71c0,3.23,0,5.83,0,6.62s.44,1.4,1.66,1.16a24.14,24.14,0,0,0-9.19-47Z"/>
</svg>
