<svg xmlns="http://www.w3.org/2000/svg" width="200.969" height="195.75" viewBox="0 0 200.969 195.75">
  <defs>
    <style>
      .cls-1 {
        fill: #2f2f2f;
        fill-rule: evenodd;
      }
    </style>
  </defs>
  <path id="github.svg" class="cls-1" d="M821.057,256.641c-48.861,3.049-89.083,41.935-93.583,90.624a100.387,100.387,0,0,0,68.28,104.766c5.024,0.921,6.859-2.178,6.859-4.838,0-2.382-.087-8.693-0.136-17.069-27.952,6.065-33.849-13.453-33.849-13.453-4.57-11.594-11.157-14.68-11.157-14.68-9.123-6.227.691-6.1,0.691-6.1,10.083,0.71,15.391,10.343,15.391,10.343,8.963,15.336,23.517,10.908,29.243,8.338,0.913-6.485,3.509-10.908,6.38-13.416-22.313-2.533-45.771-11.143-45.771-49.6a38.764,38.764,0,0,1,10.343-26.931c-1.033-2.539-4.481-12.743.986-26.56,0,0,8.436-2.7,27.632,10.288a95.357,95.357,0,0,1,50.312,0c19.184-12.987,27.606-10.288,27.606-10.288,5.482,13.817,2.033,24.021,1,26.56a38.7,38.7,0,0,1,10.329,26.931c0,38.554-23.494,47.038-45.879,49.522,3.608,3.1,6.822,9.224,6.822,18.586,0,13.417-.123,24.241-0.123,27.531,0,2.684,1.81,5.807,6.909,4.827A100.367,100.367,0,0,0,821.057,256.641Z" transform="translate(-727.031 -256.469)"/>
</svg>
