<?xml version="1.0" encoding="utf-8"?>
<!-- Generator: Adobe Illustrator 24.1.2, SVG Export Plug-In . SVG Version: 6.00 Build 0)  -->
<svg version="1.1" id="Layer_1" xmlns="http://www.w3.org/2000/svg" xmlns:xlink="http://www.w3.org/1999/xlink" x="0px" y="0px"
	 viewBox="0 0 50 50" style="enable-background:new 0 0 50 50;" xml:space="preserve">
<style type="text/css">
	.st0{fill:#2D2D2D;}
	.st1{fill:#5FBF1B;}
	.st2{fill:#038C33;}
	.st3{fill:#027353;}
</style>
<path class="st0" d="M48.6,22.58l-8.84-12.15c-0.76-1.05-1.99-1.67-3.29-1.67H13.53c-1.3,0-2.52,0.62-3.29,1.67L1.4,22.58
	c-0.51,0.69-0.78,1.53-0.78,2.39v12.22c0,2.24,1.82,4.06,4.06,4.06h40.63c2.24,0,4.06-1.82,4.06-4.06V24.97
	C49.38,24.11,49.1,23.27,48.6,22.58z M12.43,12.02c0.26-0.35,0.66-0.56,1.1-0.56h22.95c0.43,0,0.84,0.21,1.1,0.56l7.47,10.28H33.48
	l-2.71,5.42H19.23l-2.71-5.42H4.96L12.43,12.02z M46.67,26.35v10.83c0,0.75-0.61,1.35-1.35,1.35H4.69c-0.75,0-1.35-0.61-1.35-1.35
	V26.35c0-0.75,0.61-1.35,1.35-1.35h10.16l2.71,5.42h14.9L35.16,25h10.16C46.06,25,46.67,25.61,46.67,26.35z"/>
</svg>
