<svg height="512" viewBox="0 0 512 512" width="512" xmlns="http://www.w3.org/2000/svg" xmlns:xlink="http://www.w3.org/1999/xlink"><filter id="a" height="110.3%" width="110.3%" x="-5.1%" y="-5.1%"><feOffset dx="0" dy="3" in="SourceAlpha" result="shadowOffsetOuter1"/><feGaussianBlur in="shadowOffsetOuter1" result="shadowBlurOuter1" stdDeviation="5"/><feColorMatrix in="shadowBlurOuter1" result="shadowMatrixOuter1" type="matrix" values="0 0 0 0 0   0 0 0 0 0   0 0 0 0 0  0 0 0 0.303840691 0"/><feMerge><feMergeNode in="shadowMatrixOuter1"/><feMergeNode in="SourceGraphic"/></feMerge></filter><linearGradient id="b"><stop offset="0" stop-color="#f88a36"/><stop offset="1" stop-color="#fd2020"/></linearGradient><linearGradient id="c" x1="100%" x2="0%" xlink:href="#b" y1="0%" y2="100%"/><linearGradient id="d" x1="50%" x2="50%" xlink:href="#b" y1="0%" y2="100%"/><g fill="none" fill-rule="evenodd"><g fill="#fdfafa" filter="url(#a)" stroke="url(#c)" stroke-width="10" transform="translate(8 8)"><path d="m78 78h340v340h-340z" transform="matrix(.70710678 .70710678 -.70710678 .70710678 248 -102.724963)"/><path d="m78 78h340v340h-340z"/></g><path d="m324.058289 364.042568c-35.927122 20.806634-85.325952 22.944408-135.025009 1.589824-40.240378-17.163929-73.62943-47.208524-95.03328-81.536384 10.27391 8.581965 22.259881 15.450624 35.101883 21.454913 51.3249 24.117482 102.639022 22.465917 138.750899.06174-.023095-.023152-.038491-.038588-.053887-.06174-51.369549-39.483213-95.03328-90.98272-127.565531-133.035891-6.852096-6.867116-11.989051-15.450624-17.126006-23.175164 39.382807 36.048883 101.884606 81.536384 124.139868 94.417049-47.081696-49.786201-89.036445-111.580979-87.327462-109.867673 74.487 75.532095 143.839355 118.449637 143.839355 118.449637 2.294039 1.296556 4.064606 2.377019 5.488758 3.341719 1.501134-3.827927 2.817512-7.802488 3.926041-11.923683 11.985972-43.774195-1.708982-93.560396-31.67776-134.756915 69.344657 42.05703 110.444915 121.019597 93.3166 187.113074-.446491 1.782765-.931473 3.542376-1.454945 5.271117.200151.239246.400302.486209.600454.740889 34.241233 42.917542 24.826434 88.405043 20.546279 79.823079-18.575561-36.442481-52.963059-25.298275-70.445487-17.904819z" fill="url(#d)" fill-rule="nonzero"/></g></svg>