<svg height="512" viewBox="0 0 512 512" width="512" xmlns="http://www.w3.org/2000/svg" xmlns:xlink="http://www.w3.org/1999/xlink"><filter id="a" height="110.3%" width="110.3%" x="-5.1%" y="-5.1%"><feOffset dx="0" dy="3" in="SourceAlpha" result="shadowOffsetOuter1"/><feGaussianBlur in="shadowOffsetOuter1" result="shadowBlurOuter1" stdDeviation="5"/><feColorMatrix in="shadowBlurOuter1" result="shadowMatrixOuter1" type="matrix" values="0 0 0 0 0   0 0 0 0 0   0 0 0 0 0  0 0 0 0.303840691 0"/><feMerge><feMergeNode in="shadowMatrixOuter1"/><feMergeNode in="SourceGraphic"/></feMerge></filter><linearGradient id="b"><stop offset="0" stop-color="#f88a36"/><stop offset="1" stop-color="#fd2020"/></linearGradient><linearGradient id="c" x1="100%" x2="0%" xlink:href="#b" y1="0%" y2="100%"/><linearGradient id="d" x1="50%" x2="50%" xlink:href="#b" y1="0%" y2="100%"/><g fill="none" fill-rule="evenodd"><g fill="#fdfafa" filter="url(#a)" stroke="url(#c)" stroke-width="10" transform="translate(8 8)"><path d="m78 78h340v340h-340z" transform="matrix(.70710678 .70710678 -.70710678 .70710678 248 -102.724963)"/><path d="m78 78h340v340h-340z"/></g><path d="m308.818078 342.501953c-29.330666 17.009804-69.659547 18.757473-110.233531 1.299711-32.851981-14.031826-60.110584-38.59383-77.584547-66.657482 8.387553 7.015913 18.172821 12.631167 28.656947 17.539782 41.901312 19.716482 83.793825 18.366297 113.275324.050474-.018854-.018927-.031423-.031546-.043993-.050474-41.937763-32.278247-77.584547-74.380033-104.143663-108.759268-5.594006-5.613992-9.787782-12.631167-13.981559-18.94612 32.151866 29.47062 83.177925 66.657482 101.346975 77.187661-38.437188-40.701128-72.68877-91.219487-71.293568-89.818828 60.810698 61.748867 117.429506 96.834741 117.429506 96.834741 1.872839 1.059958 3.318318 1.943256 4.480987 2.731915 1.225515-3.1294 2.300198-6.378676 3.205194-9.747828 9.785268-35.786204-1.395202-76.487331-25.861516-110.166237 56.612523 34.38239 90.166504 98.935729 76.18306 152.968353-.364512 1.457442-.760448 2.895957-1.187807 4.309234.163402.195588.326804.397484.490206.60569 27.954319 35.085874 20.268138 72.272736 16.773848 65.256823-15.164966-29.792392-43.238694-20.6818-57.511234-14.637516z" fill="url(#d)" fill-rule="nonzero"/></g></svg>