<svg height="512" viewBox="0 0 512 512" width="512" xmlns="http://www.w3.org/2000/svg" xmlns:xlink="http://www.w3.org/1999/xlink"><filter id="a" height="110.6%" width="110.6%" x="-5.3%" y="-5.3%"><feOffset dx="0" dy="3" in="SourceAlpha" result="shadowOffsetOuter1"/><feGaussianBlur in="shadowOffsetOuter1" result="shadowBlurOuter1" stdDeviation="5"/><feColorMatrix in="shadowBlurOuter1" result="shadowMatrixOuter1" type="matrix" values="0 0 0 0 0   0 0 0 0 0   0 0 0 0 0  0 0 0 0.303840691 0"/><feMerge><feMergeNode in="shadowMatrixOuter1"/><feMergeNode in="SourceGraphic"/></feMerge></filter><linearGradient id="b"><stop offset="0" stop-color="#f88a36"/><stop offset="1" stop-color="#fd2020"/></linearGradient><linearGradient id="c" x1="100%" x2="0%" xlink:href="#b" y1="0%" y2="100%"/><linearGradient id="d" x1="50%" x2="50%" xlink:href="#b" y1="0%" y2="100%"/><g fill="none" fill-rule="evenodd"><g fill="#fdfafa" filter="url(#a)" stroke="url(#c)" stroke-width="12" transform="translate(16 16)"><path d="m71 71h338v338h-338z" transform="matrix(.5 .8660254 -.8660254 .5 327.846097 -87.846097)"/><path d="m71 71h338v338h-338z" transform="matrix(.8660254 .5 -.5 .8660254 152.153903 -87.846097)"/><path d="m71 71h338v338h-338z"/></g><path d="m306.012315 337.332206c-27.799346 16.098564-66.022704 17.752607-104.478367 1.230083-31.136817-13.280121-56.97228-36.526304-73.533948-63.086545 7.949648 6.64006 17.224039 11.954497 27.160802 16.600151 39.713692 18.660241 79.419046 17.382388 107.36135.04777-.017869-.017914-.029782-.029856-.041696-.04777-39.748241-30.549055-73.533947-70.395389-98.706444-102.932879-5.301949-5.313243-9.276773-11.954498-13.251597-17.931149 30.473254 27.891836 78.835302 63.086545 96.055767 73.052607-36.430428-38.52071-68.893774-86.332728-67.571414-85.007105 57.635843 58.440892 111.298648 91.647165 111.298648 91.647165 1.77506 1.003175 3.145073 1.839154 4.24704 2.585564 1.161533-2.961754 2.180107-6.036962 3.037854-9.225624 9.274391-33.869085-1.32236-72.389795-24.511315-104.264474 53.656849 32.540476 85.459015 93.6356 72.205631 144.77362-.345482 1.379365-.720746 2.740816-1.125793 4.078382.154871.18511.309742.376191.464613.573243 26.494856 33.206273 19.209962 68.400982 15.898105 61.760921-14.373222-28.196371-40.981253-19.573847-54.50864-13.853363z" fill="url(#d)" fill-rule="nonzero"/></g></svg>