<svg id="Layer_1" xmlns="http://www.w3.org/2000/svg" xmlns:xlink="http://www.w3.org/1999/xlink" viewBox="0 0 512 512"><defs><style>.cls-1{stroke:url(#linear-gradient)}.cls-1,.cls-2,.cls-3{fill:#fdfafa;fill-rule:evenodd;stroke-width:11.48px}.cls-4{fill:url(#linear-gradient-4);stroke-width:0}.cls-2{stroke:url(#linear-gradient-3)}.cls-3{stroke:url(#linear-gradient-2)}</style><linearGradient id="linear-gradient" x1="-1616.17" y1="678.04" x2="-1617.07" y2="677.14" gradientTransform="translate(74902.73 586241.67) rotate(60) scale(337 -337)" gradientUnits="userSpaceOnUse"><stop offset="0" stop-color="#f88a36"/><stop offset="1" stop-color="#fd2020"/></linearGradient><linearGradient id="linear-gradient-2" x1="-1616.18" y1="678.03" x2="-1617.08" y2="677.13" gradientTransform="translate(357899.26 470409.74) rotate(30) scale(337 -337)" xlink:href="#linear-gradient"/><linearGradient id="linear-gradient-3" x1="-1616.2" y1="678.02" x2="-1617.09" y2="677.12" gradientTransform="translate(545065.48 228598.09) scale(337 -337)" xlink:href="#linear-gradient"/><linearGradient id="linear-gradient-4" x1="-1613.38" y1="676.37" x2="-1613.38" y2="675.16" gradientTransform="translate(405214.43 152979.16) scale(251 -226)" xlink:href="#linear-gradient"/></defs><g id="logo-tiny"><path id="Box" class="cls-1" d="m322.18,9l180.82,313.18-313.18,180.82L9,189.82,322.18,9Z"/><path id="Box-2" class="cls-3" d="m189.82,9l313.18,180.82-180.82,313.18L9,322.18,189.82,9Z"/><path id="Box-3" class="cls-2" d="m75.18,75.18h361.63v361.63H75.18V75.18Z"/><path id="Bird" class="cls-4" d="m332.97,373.41c-35.65,20.7-84.68,22.82-134,1.58-39.93-17.07-73.07-46.96-94.31-81.1,10.2,8.54,22.09,15.37,34.83,21.34,50.93,23.99,101.86,22.35,137.7.06-.02-.02-.04-.04-.05-.06-50.98-39.27-94.31-90.5-126.6-132.32-6.8-6.83-11.9-15.37-17-23.05,39.08,35.86,101.11,81.1,123.2,93.91-46.72-49.52-88.36-110.98-86.66-109.28,73.92,75.13,142.75,117.82,142.75,117.82,2.28,1.29,4.03,2.36,5.45,3.32,1.49-3.81,2.8-7.76,3.9-11.86,11.89-43.54-1.7-93.06-31.44-134.04,68.82,41.83,109.61,120.37,92.61,186.11-.44,1.77-.92,3.52-1.44,5.24.2.24.4.48.6.74,33.98,42.69,24.64,87.93,20.39,79.4-18.43-36.25-52.56-25.16-69.91-17.81h0Z"/></g></svg>