<svg height="512" viewBox="0 0 512 512" width="512" xmlns="http://www.w3.org/2000/svg" xmlns:xlink="http://www.w3.org/1999/xlink"><filter id="a" height="110.3%" width="110.3%" x="-5.1%" y="-5.1%"><feOffset dx="0" dy="3" in="SourceAlpha" result="shadowOffsetOuter1"/><feGaussianBlur in="shadowOffsetOuter1" result="shadowBlurOuter1" stdDeviation="5"/><feColorMatrix in="shadowBlurOuter1" result="shadowMatrixOuter1" type="matrix" values="0 0 0 0 0   0 0 0 0 0   0 0 0 0 0  0 0 0 0.303840691 0"/><feMerge><feMergeNode in="shadowMatrixOuter1"/><feMergeNode in="SourceGraphic"/></feMerge></filter><linearGradient id="b"><stop offset="0" stop-color="#f88a36"/><stop offset="1" stop-color="#fd2020"/></linearGradient><linearGradient id="c" x1="100%" x2="0%" xlink:href="#b" y1="0%" y2="100%"/><linearGradient id="d" x1="50%" x2="50%" xlink:href="#b" y1="0%" y2="100%"/><g fill="none" fill-rule="evenodd"><g fill="#fdfafa" filter="url(#a)" stroke="url(#c)" stroke-width="13" transform="translate(8 8)"><path d="m79.5 79.5h337v337h-337z" transform="matrix(.25881905 .96592583 -.96592583 .25881905 423.362482 -55.736728)"/><path d="m79.5 79.5h337v337h-337z" transform="matrix(.5 .8660254 -.8660254 .5 338.7743 -90.7743)"/><path d="m79.5 79.5h337v337h-337z" transform="matrix(.70710678 .70710678 -.70710678 .70710678 248 -102.724963)"/><path d="m79.5 79.5h337v337h-337z" transform="matrix(.8660254 .5 -.5 .8660254 157.2257 -90.7743)"/><path d="m79.5 79.5h337v337h-337z" transform="matrix(.96592583 .25881905 -.25881905 .96592583 72.637518 -55.736728)"/><path d="m79.5 79.5h337v337h-337z"/></g><path d="m309.326657 343.363578c-29.566254 17.161676-70.219062 18.92495-111.118941 1.311315-33.115852-14.15711-60.5934-38.938418-78.207716-67.252638 8.454922 7.078555 18.318787 12.743945 28.887124 17.696387 42.237868 19.892522 84.466867 18.530282 114.185165.050925-.019005-.019096-.031676-.031828-.044346-.050925-42.274612-32.566445-78.207716-75.04414-104.980159-109.730333-5.638937-5.664117-9.866399-12.743945-14.09386-19.115281 32.410114 29.73375 83.84602 67.252638 102.161007 77.876836-38.745921-41.064531-73.272616-92.033946-71.866208-90.620781 61.299138 62.300195 118.372716 97.699336 118.372716 97.699336 1.887881 1.069422 3.344971 1.960607 4.516978 2.756308 1.235359-3.157341 2.318674-6.435629 3.230939-9.834863 9.863865-36.105723-1.406409-77.170254-26.069239-111.149864 57.067242 34.689375 90.890733 99.819083 76.794972 154.334142-.36744 1.470455-.766556 2.921813-1.197348 4.347709.164715.197334.329429.401034.494144.611099 28.178851 35.39914 20.430934 72.918028 16.908578 65.839473-15.286774-30.058397-43.585993-20.86646-57.973172-14.768209z" fill="url(#d)" fill-rule="nonzero"/></g></svg>