<?xml version="1.0" encoding="UTF-8"?>
<svg width="512px" height="512px" viewBox="0 0 512 512" version="1.1" xmlns="http://www.w3.org/2000/svg" xmlns:xlink="http://www.w3.org/1999/xlink">
    <title>Logo Tiny</title>
    <defs>
        <filter x="-5.1%" y="-5.1%" width="110.3%" height="110.3%" filterUnits="objectBoundingBox" id="filter-1">
            <feOffset dx="0" dy="3" in="SourceAlpha" result="shadowOffsetOuter1"></feOffset>
            <feGaussianBlur stdDeviation="5" in="shadowOffsetOuter1" result="shadowBlurOuter1"></feGaussianBlur>
            <feColorMatrix values="0 0 0 0 0   0 0 0 0 0   0 0 0 0 0  0 0 0 0.303840691 0" type="matrix" in="shadowBlurOuter1" result="shadowMatrixOuter1"></feColorMatrix>
            <feMerge>
                <feMergeNode in="shadowMatrixOuter1"></feMergeNode>
                <feMergeNode in="SourceGraphic"></feMergeNode>
            </feMerge>
        </filter>
        <linearGradient x1="100%" y1="0%" x2="0%" y2="100%" id="linearGradient-2">
            <stop stop-color="#F88A36" offset="0%"></stop>
            <stop stop-color="#FD2020" offset="100%"></stop>
        </linearGradient>
        <linearGradient x1="50%" y1="0%" x2="50%" y2="100%" id="linearGradient-3">
            <stop stop-color="#F88A36" offset="0%"></stop>
            <stop stop-color="#FD2020" offset="100%"></stop>
        </linearGradient>
    </defs>
    <g id="Logo-Tiny" stroke="none" stroke-width="1" fill="none" fill-rule="evenodd">
        <g id="Boxes" filter="url(#filter-1)" transform="translate(8.000000, 8.000000)" fill="#FDFAFA" stroke="url(#linearGradient-2)" stroke-width="10">
            <rect id="Box-4" transform="translate(248.000000, 248.000000) rotate(-315.000000) translate(-248.000000, -248.000000) " x="78" y="78" width="340" height="340"></rect>
            <rect id="Box-1-(Frontmost)" x="78" y="78" width="340" height="340"></rect>
        </g>
        <path d="M308.818078,342.501953 C279.487412,359.511757 239.158531,361.259426 198.584547,343.801664 C165.732566,329.769838 138.473963,305.207834 121,277.144182 C129.387553,284.160095 139.172821,289.775349 149.656947,294.683964 C191.558259,314.400446 233.450772,313.050261 262.932271,294.734438 C262.913417,294.715511 262.900848,294.702892 262.888278,294.683964 C220.950515,262.405717 185.303731,220.303931 158.744615,185.924696 C153.150609,180.310704 148.956833,173.293529 144.763056,166.978576 C176.914922,196.449196 227.940981,233.636058 246.110031,244.166237 C207.672843,203.465109 173.421261,152.94675 174.816463,154.347409 C235.627161,216.096276 292.245969,251.18215 292.245969,251.18215 C294.118808,252.242108 295.564287,253.125406 296.726956,253.914065 C297.952471,250.784665 299.027154,247.535389 299.93215,244.166237 C309.717418,208.380033 298.536948,167.678906 274.070634,134 C330.683157,168.38239 364.237138,232.935729 350.253694,286.968353 C349.889182,288.425795 349.493246,289.86431 349.065887,291.277587 C349.229289,291.473175 349.392691,291.675071 349.556093,291.883277 C377.510412,326.969151 369.824231,364.156013 366.329941,357.1401 C351.164975,327.347708 323.091247,336.4583 308.818707,342.502584 L308.818078,342.501953 Z" id="Swift-Bird" fill="url(#linearGradient-3)" fill-rule="nonzero"></path>
    </g>
</svg>