<svg viewBox="0 0 512 512" xmlns="http://www.w3.org/2000/svg" xmlns:xlink="http://www.w3.org/1999/xlink"><linearGradient id="a" gradientTransform="matrix(168.5 291.85056108 291.85056108 -168.5 74902.73 586241.67)" gradientUnits="userSpaceOnUse" x1="-1616.17" x2="-1617.07" y1="678.04" y2="677.14"><stop offset="0" stop-color="#f88a36"/><stop offset="1" stop-color="#fd2020"/></linearGradient><linearGradient id="b" gradientTransform="matrix(291.85056108 168.5 168.5 -291.85056108 357899.26 470409.74)" x1="-1616.18" x2="-1617.08" xlink:href="#a" y1="678.03" y2="677.13"/><linearGradient id="c" gradientTransform="matrix(337 0 0 -337 545065.48 228598.09)" x1="-1616.2" x2="-1617.09" xlink:href="#a" y1="678.02" y2="677.12"/><linearGradient id="d" gradientTransform="matrix(251 0 0 -226 405214.43 152979.16)" x1="-1613.38" x2="-1613.38" xlink:href="#a" y1="676.4" y2="675.19"/><g fill="#fdfafa" fill-rule="evenodd" stroke-width="11.48"><path d="m322.18 9 180.82 313.18-313.18 180.82-180.82-313.18z" stroke="url(#a)"/><path d="m189.82 9 313.18 180.82-180.82 313.18-313.18-180.82z" stroke="url(#b)"/><path d="m75.18 75.18h361.63v361.63h-361.63z" stroke="url(#c)"/></g><path d="m332.97 367.41c-35.65 20.7-84.68 22.82-134 1.58-39.93-17.07-73.07-46.96-94.31-81.1 10.2 8.54 22.09 15.37 34.83 21.34 50.93 23.99 101.86 22.35 137.7.06-.02-.02-.04-.04-.05-.06-50.98-39.27-94.31-90.5-126.6-132.32-6.8-6.83-11.9-15.37-17-23.05 39.08 35.86 101.11 81.1 123.2 93.91-46.72-49.52-88.36-110.98-86.66-109.28 73.92 75.13 142.75 117.82 142.75 117.82 2.28 1.29 4.03 2.36 5.45 3.32 1.49-3.81 2.8-7.76 3.9-11.86 11.89-43.54-1.7-93.06-31.44-134.04 68.82 41.83 109.61 120.37 92.61 186.11-.44 1.77-.92 3.52-1.44 5.24.2.24.4.48.6.74 33.98 42.69 24.64 87.93 20.39 79.4-18.43-36.25-52.56-25.16-69.91-17.81z" fill="url(#d)"/></svg>