<svg height="512" viewBox="0 0 512 512" width="512" xmlns="http://www.w3.org/2000/svg" xmlns:xlink="http://www.w3.org/1999/xlink"><linearGradient id="a" gradientTransform="matrix(87.2220182 325.51700346 325.51700346 -87.2220182 -171850.9 240130.23)" gradientUnits="userSpaceOnUse" x1="-554.85" x2="-555.87" y1="678.04" y2="677.01"><stop offset="0" stop-color="#f88a36"/><stop offset="1" stop-color="#fd2020"/></linearGradient><linearGradient id="b" gradientTransform="matrix(168.5 291.85056108 291.85056108 -168.5 -103920.03 276367.97)" x1="-554.48" x2="-555.51" xlink:href="#a" y1="677.89" y2="676.86"/><linearGradient id="c" gradientTransform="matrix(238.29498526 238.29498526 238.29498526 -238.29498526 -28924.83 293789.14)" x1="-554.16" x2="-555.19" xlink:href="#a" y1="677.65" y2="676.62"/><linearGradient id="d" gradientTransform="matrix(291.85056108 168.5 168.5 -291.85056108 48023.9 291206.51)" x1="-553.92" x2="-554.95" xlink:href="#a" y1="677.33" y2="676.3"/><linearGradient id="e" gradientTransform="matrix(325.51700346 87.2220182 87.2220182 -325.51700346 121682.23 268796.08)" x1="-553.76" x2="-554.79" xlink:href="#a" y1="676.96" y2="675.93"/><linearGradient id="f" gradientTransform="matrix(337 0 0 -337 187030.48 228085.09)" x1="-553.71" x2="-554.74" xlink:href="#a" y1="676.56" y2="675.54"/><linearGradient id="g" gradientTransform="matrix(251 0 0 -226 139214.46 152979.16)" x1="-553.62" x2="-553.62" xlink:href="#a" y1="676.32" y2="675.3"/><g fill="#fdfafa" fill-rule="evenodd" stroke-width="13.37"><path d="m378.5 43.82 89.68 334.68-334.68 89.68-89.68-334.68z" stroke="url(#a)"/><path d="m319.41 19.35 173.24 300.06-300.06 173.24-173.24-300.06z" stroke="url(#b)"/><path d="m256 11 245 245-245 245-245-245z" stroke="url(#c)"/><path d="m192.59 19.35 300.06 173.24-173.24 300.06-300.06-173.24z" stroke="url(#d)"/><path d="m133.5 43.82 334.68 89.68-89.68 334.68-334.68-89.68z" stroke="url(#e)"/><path d="m82.76 82.76h346.48v346.48h-346.48z" stroke="url(#f)"/></g><path d="m321.62 346.1c-30.4 17.64-72.19 19.46-114.25 1.35-34.05-14.56-62.3-40.03-80.41-69.14 8.69 7.28 18.83 13.1 29.7 18.19 43.43 20.45 86.84 19.05 117.4.05-.02-.02-.03-.03-.05-.05-43.46-33.48-80.41-77.16-107.93-112.82-5.8-5.82-10.14-13.1-14.49-19.65 33.32 30.57 86.21 69.14 105.04 80.07-39.84-42.22-75.33-94.62-73.89-93.17 63.02 64.05 121.7 100.45 121.7 100.45 1.94 1.1 3.44 2.02 4.64 2.83 1.27-3.25 2.38-6.62 3.32-10.11 10.14-37.12-1.45-79.34-26.8-114.28 58.67 35.67 93.45 102.63 78.96 158.68-.38 1.51-.79 3-1.23 4.47.17.2.34.41.51.63 28.97 36.4 21.01 74.97 17.38 67.69-15.72-30.9-44.81-21.45-59.6-15.18z" fill="url(#g)"/></svg>