<svg width="182" height="182" viewBox="0 0 182 182" xmlns="http://www.w3.org/2000/svg"><title>Logo Small</title><defs><linearGradient x1="100%" y1="0%" x2="0%" y2="100%" id="a"><stop stop-color="#F88A36" offset="0%"/><stop stop-color="#FD2020" offset="100%"/></linearGradient><linearGradient x1="50%" y1="0%" x2="50%" y2="100%" id="b"><stop stop-color="#F88A36" offset="0%"/><stop stop-color="#FD2020" offset="100%"/></linearGradient></defs><g fill="none" fill-rule="evenodd"><path stroke="url(#a)" stroke-width="5" fill="#FDFAFA" transform="rotate(75 90.51 90.51)" d="M29.01 29.01h123v123h-123z"/><path stroke="url(#a)" stroke-width="5" fill="#FDFAFA" transform="rotate(60 90.51 90.51)" d="M29.01 29.01h123v123h-123z"/><path stroke="url(#a)" stroke-width="5" fill="#FDFAFA" transform="rotate(45 90.51 90.51)" d="M29.01 29.01h123v123h-123z"/><path stroke="url(#a)" stroke-width="5" fill="#FDFAFA" transform="rotate(30 90.51 90.51)" d="M29.01 29.01h123v123h-123z"/><path stroke="url(#a)" stroke-width="5" fill="#FDFAFA" transform="rotate(15 90.51 90.51)" d="M29.01 29.01h123v123h-123z"/><path stroke="url(#a)" stroke-width="5" fill="#FDFAFA" d="M29.01 29.01h123v123h-123z"/><path d="M113.166 124.911c-11.426 6.683-27.136 7.37-42.942.511C57.426 119.91 46.807 110.26 40 99.235c3.267 2.756 7.08 4.962 11.164 6.89 16.323 7.747 32.642 7.216 44.127.02a.106.106 0 01-.017-.02c-16.337-12.68-30.224-29.22-40.57-42.726-2.18-2.206-3.813-4.962-5.447-7.443C61.782 67.534 81.66 82.143 88.737 86.28 73.765 70.29 60.422 50.443 60.966 50.994c23.689 24.258 45.745 38.042 45.745 38.042.73.416 1.293.763 1.746 1.073.477-1.23.896-2.506 1.248-3.83 3.812-14.058-.543-30.048-10.074-43.279 22.054 13.507 35.125 38.868 29.678 60.095a36.425 36.425 0 01-.463 1.693c.064.076.127.156.19.238 10.89 13.783 7.897 28.392 6.535 25.636-5.907-11.704-16.844-8.125-22.404-5.75z" fill="url(#b)" fill-rule="nonzero"/></g></svg>