<svg viewBox="0 0 512 512" xmlns="http://www.w3.org/2000/svg" xmlns:xlink="http://www.w3.org/1999/xlink"><linearGradient id="a" gradientTransform="matrix(128.96431671 311.34740246 311.34740246 -128.96431671 -70343.73 425135.9)" gradientUnits="userSpaceOnUse" x1="-1084.16" x2="-1085.1" y1="676.49" y2="675.56"><stop offset="0" stop-color="#f88a36"/><stop offset="1" stop-color="#fd2020"/></linearGradient><linearGradient id="b" gradientTransform="matrix(238.29498526 238.29498526 238.29498526 -238.29498526 97625.59 419814.9)" x1="-1084.17" x2="-1085.11" xlink:href="#a" y1="676.5" y2="675.56"/><linearGradient id="c" gradientTransform="matrix(311.34740246 128.96431671 128.96431671 -311.34740246 250772.75 350619.86)" x1="-1084.18" x2="-1085.12" xlink:href="#a" y1="676.51" y2="675.57"/><linearGradient id="d" gradientTransform="matrix(337 0 0 -337 365782.48 228085.09)" x1="-1084.18" x2="-1085.12" xlink:href="#a" y1="676.52" y2="675.58"/><linearGradient id="e" gradientTransform="matrix(251 0 0 -226 272214.44 152979.16)" x1="-1083.5" x2="-1083.5" xlink:href="#a" y1="676.32" y2="675.21"/><g fill="#fdfafa" fill-rule="evenodd" stroke-width="12.1"><path d="m350.52 27.8 133.68 322.72-322.72 133.68-133.68-322.72z" stroke="url(#a)"/><path d="m256 9 247 247-247 247-247-247z" stroke="url(#b)"/><path d="m161.48 27.8 322.72 133.68-133.68 322.72-322.72-133.68z" stroke="url(#c)"/><path d="m81.34 81.34h349.31v349.31h-349.31z" stroke="url(#d)"/></g><path d="m327.2 364.61c-32.98 19.14-78.33 21.11-123.96 1.46-36.94-15.79-67.59-43.44-87.24-75.02 9.43 7.9 20.44 14.22 32.22 19.74 47.12 22.19 94.23 20.67 127.38.06-.02-.02-.04-.04-.05-.06-47.16-36.33-87.24-83.71-117.11-122.41-6.29-6.32-11.01-14.22-15.72-21.32 36.15 33.17 93.53 75.02 113.96 86.87-43.22-45.81-81.74-102.67-80.17-101.09 68.38 69.5 132.05 108.99 132.05 108.99 2.11 1.19 3.73 2.19 5.04 3.07 1.38-3.52 2.59-7.18 3.6-10.97 11-40.28-1.57-86.09-29.08-123.99 63.66 38.7 101.39 111.35 85.67 172.17-.41 1.64-.86 3.26-1.34 4.85.18.22.37.45.55.68 31.43 39.49 22.79 81.34 18.86 73.45-17.05-33.53-48.62-23.28-64.67-16.47z" fill="url(#e)"/></svg>