<svg height="512" viewBox="0 0 512 512" width="512" xmlns="http://www.w3.org/2000/svg" xmlns:xlink="http://www.w3.org/1999/xlink"><filter id="a" height="110.6%" width="110.6%" x="-5.3%" y="-5.3%"><feOffset dx="0" dy="3" in="SourceAlpha" result="shadowOffsetOuter1"/><feGaussianBlur in="shadowOffsetOuter1" result="shadowBlurOuter1" stdDeviation="5"/><feColorMatrix in="shadowBlurOuter1" result="shadowMatrixOuter1" type="matrix" values="0 0 0 0 0   0 0 0 0 0   0 0 0 0 0  0 0 0 0.303840691 0"/><feMerge><feMergeNode in="shadowMatrixOuter1"/><feMergeNode in="SourceGraphic"/></feMerge></filter><linearGradient id="b"><stop offset="0" stop-color="#f88a36"/><stop offset="1" stop-color="#fd2020"/></linearGradient><linearGradient id="c" x1="100%" x2="0%" xlink:href="#b" y1="0%" y2="100%"/><linearGradient id="d" x1="50%" x2="50%" xlink:href="#b" y1="0%" y2="100%"/><g fill="none" fill-rule="evenodd"><g fill="#fdfafa" filter="url(#a)" stroke="url(#c)" stroke-width="11" transform="translate(16 16)"><path d="m70.5 70.5h339v339h-339z" transform="matrix(.5 .8660254 -.8660254 .5 327.846097 -87.846097)"/><path d="m70.5 70.5h339v339h-339z" transform="matrix(.8660254 .5 -.5 .8660254 152.153903 -87.846097)"/><path d="m70.5 70.5h339v339h-339z"/></g><path d="m312.88671 348.533325c-31.215368 18.072916-74.135663 19.929815-117.316811 1.380943-34.962951-14.908815-63.973111-41.005945-82.569899-70.823575 8.926512 7.454408 19.340552 13.420615 30.498358 18.636019 44.593765 20.948762 89.178166 19.514191 120.554059.053629-.020066-.020111-.033443-.033518-.04682-.053629-44.632558-34.295637-82.569899-79.028786-110.835625-115.556723-5.953461-5.964867-10.416717-13.420615-14.879972-20.130252 34.217849 31.312534 88.52269 70.823575 107.859229 82.011889-40.907047-43.244948-77.359534-96.920704-75.87468-95.432504 64.718213 65.608171 124.975177 102.886912 124.975177 102.886912 1.993182 1.126205 3.531544 2.06471 4.768922 2.90266 1.304263-3.324987 2.448002-6.777343 3.41115-10.357068 10.414041-38.02284-1.484854-81.267789-27.5233-117.051626 60.250276 36.531289 95.960336 105.119212 81.078357 162.528875-.387935 1.548532-.809312 3.076954-1.264132 4.578561.173902.207812.347804.422327.521705.643546 29.75058 37.278741 21.570509 76.789782 17.851686 69.335375-16.139422-31.654418-46.017084-21.974414-61.206735-15.552361z" fill="url(#d)" fill-rule="nonzero"/></g></svg>