<svg width="512" height="512" viewBox="0 0 512 512" xmlns="http://www.w3.org/2000/svg"><defs><filter id="a" height="110.6%" width="110.6%" x="-5.3%" y="-5.3%"><feOffset dy="3" in="SourceAlpha" result="o"/><feGaussianBlur result="b" stdDeviation="5"/><feColorMatrix result="m" values="0,0,0,0 0,0,0,0 0,0,0,0 0,0,0,0 0,0,.3,0"/><feMerge><feMergeNode in="m"/><feMergeNode in="SourceGraphic"/></feMerge></filter><linearGradient id="b"><stop stop-color="#f88a36"/><stop stop-color="#fd2020" offset="1"/></linearGradient><linearGradient id="c" href="#b" x1="1" x2="0" y2="1"/><linearGradient id="d" href="#c" x1=".5" x2=".5"/><path id="e" d="m70.5,70.5h339v339h-339z"/></defs><g fill="#fdfafa" filter="url(#a)" stroke="url(#c)" stroke-width="11"><use href="#e" transform="matrix(.5.866-.866.5 343.846-71.846)"/><use href="#e" transform="matrix(.866.5-.5.866 168.154-71.846)"/><use href="#e" x="16" y="16"/></g><path d="m312.9,348.5c-61.4,35.55-154.9,2.73-199.9-69.44,26.83,22.4,96.8,52.38,151,18.64-46.27-38.32-92.45-85.2-125.7-135.7,34.22,31.3,88.52,70.82,107.9,82-40.9-43.24-77.36-96.92-75.88-95.43,38.96,40.35,83.1,74.95,129.8,105.8,11.13-28.52,12.75-76.75-24.1-127.4,74.3,45.05,93.9,121.2,79.8,167.1,29.26,36.15,22.86,78.98,18.37,69.98-14.65-26.1-36.4-25.37-61.24-15.56z" fill="url(#d)"/></svg>