<?xml version="1.0" encoding="utf-8"?>
<!-- Generator: Adobe Illustrator 24.1.2, SVG Export Plug-In . SVG Version: 6.00 Build 0)  -->
<svg version="1.1" id="Layer_1" xmlns="http://www.w3.org/2000/svg" xmlns:xlink="http://www.w3.org/1999/xlink" x="0px" y="0px"
	 viewBox="0 0 50 50" style="enable-background:new 0 0 50 50;" xml:space="preserve">
<style type="text/css">
	.st0{fill:#2D2D2D;}
	.st1{fill:#5FBF1B;}
	.st2{fill:#038C33;}
	.st3{fill:#027353;}
</style>
<path class="st0" d="M49.26,16l-3.92-8.25c-0.22-0.45-0.65-0.72-1.12-0.72C44.17,7.03,25,9.6,25,9.6S5.83,7.03,5.78,7.03
	c-0.47,0-0.9,0.28-1.12,0.72L0.74,16c-0.35,0.74,0.02,1.62,0.77,1.85l3.97,1.2v16.95c0,1.18,0.76,2.21,1.85,2.49l16.48,4.34
	c1.04,0.27,1.9,0.12,2.37,0l16.49-4.34c1.08-0.29,1.85-1.32,1.85-2.49V19.04l3.97-1.2C49.24,17.62,49.61,16.74,49.26,16z M6.47,9.7
	l14.51,1.95l-4.58,8.01L3.57,15.8L6.47,9.7L6.47,9.7z M7.93,19.78c9.39,2.82,8.77,2.66,9.02,2.66c0.43,0,0.84-0.23,1.07-0.63
	l5.77-10.07v28.43L7.93,35.99V19.78z M42.07,35.99l-15.85,4.17V11.72l5.77,10.07c0.23,0.4,0.64,0.63,1.07,0.63
	c0.25,0-0.4,0.17,9.02-2.66V35.99z M33.61,19.65l-4.58-8.01l14.5-1.94l2.9,6.1L33.61,19.65z"/>
</svg>
