<svg xmlns="http://www.w3.org/2000/svg" width="200" height="196" viewBox="0 0 200 196">
  <defs>
    <style>
      .cls-1 {
        fill: #f1f1f1;
        fill-rule: evenodd;
      }
    </style>
  </defs>
  <path id="speech_bubble_dark.svg" data-name="speech_bubble~dark.svg" class="cls-1" d="M1603.5,28h-125A37.629,37.629,0,0,0,1441,65.532V140.6a37.63,37.63,0,0,0,37.5,37.532h81.27c2,2.578,3.92,5.334,5.86,8.34,10.83,16.743,11.74,25.981,4.56,37.532,28.83-11.551,38.74-20.789,49.57-37.532,4.51-6.983,7.21-12.627,8.41-17.711A37.447,37.447,0,0,0,1641,140.6V65.532A37.629,37.629,0,0,0,1603.5,28Z" transform="translate(-1441 -28)"/>
</svg>
