<?xml version="1.0" encoding="utf-8"?>
<!-- Generator: Adobe Illustrator 24.1.2, SVG Export Plug-In . SVG Version: 6.00 Build 0)  -->
<svg version="1.1" id="Layer_1" xmlns="http://www.w3.org/2000/svg" xmlns:xlink="http://www.w3.org/1999/xlink" x="0px" y="0px"
	 viewBox="0 0 50 50" style="enable-background:new 0 0 50 50;" xml:space="preserve">
<style type="text/css">
	.st0{fill:#2D2D2D;}
	.st1{fill:#5FBF1B;}
	.st2{fill:#038C33;}
	.st3{fill:#027353;}
</style>
<path class="st1" d="M25,0.5C11.47,0.5,0.5,11.47,0.5,25c0,13.53,10.97,24.5,24.5,24.5c13.53,0,24.5-10.97,24.5-24.5
	C49.5,11.47,38.53,0.5,25,0.5z M41.16,14.93L18.91,37.17c-0.35,0.35-0.91,0.35-1.26,0l-8.81-8.81c-0.35-0.35-0.35-0.91,0-1.26
	l0.84-0.84c0.35-0.35,0.91-0.35,1.26,0l7.34,7.34l20.77-20.77c0.35-0.35,0.91-0.35,1.26,0l0.84,0.84
	C41.5,14.02,41.5,14.58,41.16,14.93z"/>
</svg>
