<?xml version="1.0" encoding="utf-8"?>
<!-- Generator: Adobe Illustrator 24.1.2, SVG Export Plug-In . SVG Version: 6.00 Build 0)  -->
<svg version="1.1" id="Layer_1" xmlns="http://www.w3.org/2000/svg" xmlns:xlink="http://www.w3.org/1999/xlink" x="0px" y="0px"
	 viewBox="0 0 50 50" style="enable-background:new 0 0 50 50;" xml:space="preserve">
<style type="text/css">
	.st0{fill:#2D2D2D;}
	.st1{fill:#5FBF1B;}
	.st2{fill:#038C33;}
	.st3{fill:#027353;}
</style>
<path class="st0" d="M37.39,43.8c-5.74,3.31-13.63,3.66-21.56,0.25C9.4,41.32,4.06,36.54,0.65,31.07c1.64,1.37,3.55,2.46,5.61,3.42
	c8.2,3.84,16.39,3.58,22.16,0.01c0,0-0.01-0.01-0.01-0.01C20.2,28.2,13.22,19.99,8.03,13.29C6.93,12.2,6.11,10.83,5.29,9.6
	c6.29,5.74,16.27,12.99,19.83,15.04C17.6,16.71,10.9,6.87,11.17,7.14c11.9,12.03,22.97,18.87,22.97,18.87
	c0.37,0.21,0.65,0.38,0.88,0.53c0.24-0.61,0.45-1.24,0.63-1.9c1.91-6.97-0.27-14.9-5.06-21.47c11.07,6.7,17.64,19.28,14.9,29.81
	c-0.07,0.28-0.15,0.56-0.23,0.84c0.03,0.04,0.06,0.08,0.1,0.12c5.47,6.84,3.96,14.08,3.28,12.72C45.67,40.85,40.18,42.63,37.39,43.8
	L37.39,43.8z"/>
</svg>
