<svg enable-background="new 0 0 1034 92.95" viewBox="0 0 1034 92.95" xmlns="http://www.w3.org/2000/svg"><g fill="#1d9bf0"><path d="m48.32 15.7h-16.8v74.31h-14.72v-74.31h-16.8v-12.76h48.32z"/><path d="m54.57 2.94h13.86l5.15 56.41c.37 4.54.74 9.44.86 14.59h.49c.49-4.41.98-9.2 1.35-13.73l6.87-57.27h15.08l6.74 57.27c.37 4.54.86 9.32 1.35 13.73h.49c.12-5.15.49-10.06.86-14.59l5.15-56.41h13.86l-10.06 87.06h-18.15l-6.38-53.34c-.61-5.4-.98-11.4-1.23-15.7h-.61c-.12 4.29-.49 10.3-1.1 15.7l-6.25 53.35h-18.28z"/><path d="m135.75 90.01v-87.07h14.84v87.06h-14.84z"/><path d="m207.12 15.7h-16.8v74.31h-14.72v-74.31h-16.8v-12.76h48.32z"/><path d="m261.07 15.7h-16.8v74.31h-14.72v-74.31h-16.8v-12.76h48.32z"/><path d="m308.04 78.24v11.77h-38.75v-87.07h37.89v11.77h-23.05v24.53h21.22v11.77h-21.22v27.22h23.91z"/><path d="m339.92 53.96h-6.75v36.05h-14.84v-87.07h21.7c16.92 0 23.79 8.34 23.79 22.81v4.54c0 10.54-3.8 17.29-10.42 20.36l12.63 39.36h-15.57zm-.86-9.81c6.99 0 9.57-4.29 9.57-13.24v-5.27c0-8.71-2.7-12.14-9.57-12.14h-5.89v30.66h5.89z"/><path d="m388.73 68.55 16.43-9.69c6.5 11.4 19.86 18.52 39.12 18.52 17.17 0 25.26-3.68 25.26-11.53 0-6.5-4.54-9.2-16.43-10.42l-27.1-2.82c-20.97-2.21-30.9-10.06-30.9-25.63 0-16.92 16.43-26.98 45.61-26.98 23.54 0 40.22 6.62 49.91 20.23l-14.84 10.54c-6.01-9.81-18.15-15.45-35.93-15.45-15.2 0-23.3 3.8-23.3 10.67 0 6.25 4.05 8.71 16.56 9.93l24.77 2.57c23.54 2.33 33.35 9.44 33.35 25.26 0 18.76-17.04 29.19-47.95 29.19-27.09.01-46.35-8.82-54.56-24.39z"/><path d="m600.38 31.39c0 18.15-14.35 29.92-36.42 29.92h-35.68v28.69h-21.46v-87.06h58.37c21.83 0 35.19 10.79 35.19 28.45zm-22.56.49c0-8.95-6.38-13.98-17.66-13.98h-31.88v28.45h31.76c11.16 0 17.78-5.39 17.78-14.47z"/><path d="m676.04 71.98h-52.36l-8.83 18.03h-23.05l45-87.06h26.12l45 87.06h-23.17zm-6.98-14.22-13.86-28.33c-1.23-2.82-3.8-9.2-5.15-13.12h-.37c-1.35 3.93-3.92 10.3-5.15 13.12l-13.86 28.33z"/><path d="m708.17 46.72c0-27.59 23.43-46.72 57.76-46.72 28.08 0 47.95 12.14 53.71 32.62l-22.32 3.68c-3.68-12.75-14.71-19.74-31.76-19.74-21.58 0-34.95 11.53-34.95 29.92 0 18.03 13.73 29.92 35.2 29.92 16.8 0 27.59-6.5 31.88-18.76l21.82 4.54c-7.23 19.74-26.49 30.78-54.57 30.78-34.82-.01-56.77-18.16-56.77-46.24z"/><path d="m922.65 74.56v15.45h-87.31v-87.07h86.45v15.45h-64.99v20.11h62.9v14.47h-62.9v21.58h65.85z"/><path d="m931.48 68.55 16.44-9.69c6.5 11.4 19.86 18.52 39.11 18.52 17.17 0 25.26-3.68 25.26-11.53 0-6.5-4.54-9.2-16.44-10.42l-27.1-2.82c-20.97-2.21-30.9-10.06-30.9-25.63.01-16.92 16.44-26.98 45.63-26.98 23.55 0 40.22 6.62 49.91 20.23l-14.84 10.54c-6.01-9.81-18.15-15.45-35.93-15.45-15.2 0-23.3 3.8-23.3 10.67 0 6.25 4.05 8.71 16.56 9.93l24.77 2.57c23.54 2.33 33.35 9.44 33.35 25.26 0 18.76-17.05 29.19-47.95 29.19-27.1.01-46.35-8.82-54.57-24.39z"/></g></svg>