<svg height="200" viewBox="0 0 200 200" width="200" xmlns="http://www.w3.org/2000/svg"><circle cx="100" cy="100" fill="#1d9bf0" r="100"/><path d="m286.455 63.42a37.4 37.4 0 0 0 -37.355 37.224v23.228a37.4 37.4 0 0 0 37.355 37.228 37.4 37.4 0 0 0 37.352-37.224v-23.232a37.4 37.4 0 0 0 -37.352-37.224zm-11.63 56.639a3.905 3.905 0 0 1 -7.81 0v-15.6a3.905 3.905 0 0 1 7.81 0zm15.535 5.1a3.906 3.906 0 0 1 -7.811 0v-25.806a3.906 3.906 0 0 1 7.811 0v25.809zm15.534-5.1a3.905 3.905 0 0 1 -7.81 0v-15.6a3.905 3.905 0 0 1 7.81 0zm-19.439 60.305c-25.982 0-48.921-17.92-54.545-42.609a5.531 5.531 0 0 1 10.79-2.442c4.491 19.715 22.892 34.024 43.754 34.024s39.264-14.309 43.755-34.024a5.532 5.532 0 0 1 10.791 2.442c-5.624 24.689-28.564 42.609-54.545 42.609z" fill="#fff" fill-rule="evenodd" transform="translate(-186 -19)"/></svg>