<svg xmlns="http://www.w3.org/2000/svg" width="119" height="180" viewBox="0 0 119 180">
  <defs>
    <style>
      .cls-1 {
        fill: #dadada;
        fill-rule: evenodd;
      }
    </style>
  </defs>
  <path id="unknown.svg" class="cls-1" d="M568.21,1088.42v-10.26q0-11.7,4.776-19.76t16.948-15.69q9.668-6.09,13.906-10.99a16.644,16.644,0,0,0,4.236-11.21,9.028,9.028,0,0,0-4.535-7.94q-4.539-2.925-11.818-2.92-18.023,0-42.131,12.77L533,989.951Q562.72,973,595.066,973q26.614,0,41.774,11.7T652,1016.57q0,14.445-6.744,25-6.745,10.575-21.544,20-12.531,8.115-15.7,11.87a13.39,13.39,0,0,0-3.164,8.9v6.08H568.21Zm-5.132,41.78q0-10.98,6.385-16.95t18.8-5.97q11.932,0,18.32,6.03t6.388,16.89q0,10.86-6.626,16.83T588.263,1153q-11.816,0-18.5-5.91T563.078,1130.2Z" transform="translate(-533 -973)"/>
</svg>
