<svg viewBox="0 0 50 50" xmlns="http://www.w3.org/2000/svg"><g fill="#0ebf4c"><path d="m24.88 24.52h-.73v-3.73h.49c.58 0 1.03-.2 1.35-.59s.47-.92.47-1.59-.18-1.18-.54-1.54-.83-.54-1.41-.54c-.73 0-1.26.23-1.6.69s-.51 1.15-.51 2.07v9.25c.26.19.63.35 1.12.48s.93.2 1.33.2c.82 0 1.47-.21 1.94-.62s.71-1.04.71-1.87c0-.67-.23-1.21-.69-1.61s-1.11-.6-1.94-.6z"/><path d="m25 1c-13.25 0-24 10.75-24 24s10.75 24 24 24 24-10.75 24-24-10.75-24-24-24zm5.92 30.54c-1.12 1.07-2.62 1.61-4.49 1.61-.82 0-1.59-.07-2.3-.21s-1.29-.32-1.73-.54v6.81h-5.01v-20.37c0-1.92.64-3.4 1.92-4.46s3.06-1.58 5.35-1.58c2.12 0 3.78.45 4.98 1.35s1.8 2.14 1.8 3.73c0 1.27-.31 2.26-.94 2.99s-1.52 1.18-2.66 1.37v.1c1.64.21 2.85.72 3.61 1.53.77.81 1.15 1.92 1.15 3.33 0 1.82-.56 3.27-1.68 4.34z"/></g></svg>