<svg height="200" viewBox="0 0 200 200" width="200" xmlns="http://www.w3.org/2000/svg"><path d="m1304.52 823.994h-3.05v-15.548h2.03a6.767 6.767 0 0 0 5.61-2.461 10.252 10.252 0 0 0 1.98-6.625 8.7 8.7 0 0 0 -2.24-6.413 7.961 7.961 0 0 0 -5.88-2.246q-4.545 0-6.65 2.861t-2.11 8.63v38.53a14.2 14.2 0 0 0 4.67 2 21.446 21.446 0 0 0 5.53.83q5.13 0 8.1-2.592c1.98-1.73 2.96-4.322 2.96-7.776a8.406 8.406 0 0 0 -2.88-6.706q-2.89-2.478-8.07-2.484zm.48-97.994a100 100 0 1 0 100 100 100 100 0 0 0 -100-100zm24.69 127.25q-7.005 6.708-18.7 6.71a49.194 49.194 0 0 1 -9.57-.883 28.784 28.784 0 0 1 -7.21-2.27v28.373h-20.9v-84.86q0-11.969 7.99-18.566t22.31-6.6q13.26 0 20.76 5.611 7.515 5.609 7.51 15.548 0 7.91-3.93 12.451t-11.09 5.721v.427q10.26 1.336 15.04 6.384t4.79 13.867q0 11.383-7 18.087z" fill="#0ebf4c" fill-rule="evenodd" transform="translate(-1205 -726)"/></svg>