<svg height="200" viewBox="0 0 200 200" width="200" xmlns="http://www.w3.org/2000/svg"><path d="m351.52 834.994h-3.048v-15.548h2.03a6.787 6.787 0 0 0 5.612-2.461 10.263 10.263 0 0 0 1.977-6.625 8.692 8.692 0 0 0 -2.242-6.413 7.953 7.953 0 0 0 -5.879-2.246q-4.542 0-6.653 2.861t-2.112 8.63v38.53a14.267 14.267 0 0 0 4.675 2 21.481 21.481 0 0 0 5.534.83q5.127 0 8.093-2.592t2.967-7.776a8.4 8.4 0 0 0 -2.885-6.706q-2.889-2.478-8.069-2.484zm.48-97.994a100 100 0 1 0 100 100 100 100 0 0 0 -100-100zm24.687 127.25q-7 6.708-18.7 6.71a49.2 49.2 0 0 1 -9.566-.883 28.86 28.86 0 0 1 -7.214-2.27v28.373h-20.897v-84.86q0-11.969 7.992-18.566t22.311-6.6q13.25 0 20.76 5.611t7.507 15.548q0 7.91-3.927 12.451t-11.092 5.721v.427q10.26 1.336 15.043 6.384t4.786 13.867q0 11.383-7.003 18.087z" fill="#038c33" fill-rule="evenodd" transform="translate(-252 -737)"/></svg>