<svg height="198" viewBox="0 0 200 198" width="200" xmlns="http://www.w3.org/2000/svg"><path d="m1520.5 877.475a52.926 52.926 0 0 1 0-102.956v-47.519a99.758 99.758 0 0 0 0 198zm25-102.956a52.852 52.852 0 0 1 34.62 75.876l27.88 27.832v13.75a99.7 99.7 0 0 0 -62.5-164.977v47.524zm-40.63 51.481a28.125 28.125 0 1 0 28.13-28.07 28.134 28.134 0 0 0 -28.13 28.07zm78.13 62.558-19.36-19.323a52.829 52.829 0 0 1 -18.14 8.24v47.525a99.429 99.429 0 0 0 37.5-12.581v-23.86z" fill="#0c946e" fill-rule="evenodd" transform="translate(-1433 -727)"/></svg>