<svg height="198" viewBox="0 0 200 198" width="200" xmlns="http://www.w3.org/2000/svg"><path d="m579.5 879.475a52.928 52.928 0 0 1 0-102.956v-47.519a99.758 99.758 0 0 0 0 198zm25-102.956a53.093 53.093 0 0 1 40.625 51.481 52.561 52.561 0 0 1 -6.008 24.4l27.883 27.827v13.75a99.7 99.7 0 0 0 -62.5-164.977v47.524zm-40.625 51.481a28.125 28.125 0 1 0 28.125-28.073 28.13 28.13 0 0 0 -28.125 28.073zm78.125 62.558-19.359-19.323a52.893 52.893 0 0 1 -18.141 8.24v47.525a99.459 99.459 0 0 0 37.5-12.582z" fill="#027353" fill-rule="evenodd" transform="translate(-492 -729)"/></svg>