<svg viewBox="0 0 50 50" xmlns="http://www.w3.org/2000/svg"><path d="m17.23 20.45c-4.57 1.57-9.28 2.4-14.38 1.01-.65-3.7-1.3-7.39-1.96-11.09 5.1 1.39 9.8.56 14.38-1.01.65 3.7 1.3 7.39 1.96 11.09z" fill="#2f2f2f"/><path d="m30.82 15.01c-4.57 1.57-9.02 3.88-13.59 5.45-.65-3.7-1.3-7.39-1.96-11.09 4.57-1.57 9.02-3.88 13.59-5.45.65 3.7 1.3 7.39 1.96 11.09z" fill="#dadada"/><path d="m45.2 14c-5.1-1.39-9.8-.56-14.38 1.01-.65-3.7-1.3-7.39-1.96-11.09 4.57-1.57 9.28-2.4 14.38-1.01.65 3.7 1.3 7.39 1.96 11.09z" fill="#2f2f2f"/><path d="m19.18 31.55c-4.57 1.57-9.28 2.4-14.38 1.01-.65-3.7-1.3-7.39-1.96-11.09 5.1 1.39 9.8.56 14.38-1.01.65 3.7 1.3 7.39 1.96 11.09z" fill="#dadada"/><path d="m32.77 26.1c-4.57 1.57-9.02 3.88-13.59 5.45-.65-3.7-1.3-7.39-1.96-11.09 4.57-1.57 9.02-3.88 13.59-5.45.65 3.7 1.3 7.39 1.96 11.09z" fill="#2f2f2f"/><path d="m47.15 25.09c-5.1-1.39-9.8-.56-14.38 1.01-.65-3.7-1.3-7.39-1.96-11.09 4.57-1.57 9.28-2.4 14.38-1.01.65 3.7 1.3 7.39 1.96 11.09z" fill="#dadada"/><path d="m34.73 37.19c-4.57 1.57-9.02 3.88-13.59 5.45-.65-3.7-1.3-7.39-1.96-11.09 4.57-1.57 9.02-3.88 13.59-5.45.65 3.7 1.3 7.39 1.96 11.09z" fill="#dadada"/><g fill="#2f2f2f"><path d="m49.11 36.18c-5.1-1.39-9.8-.56-14.38 1.01-.65-3.7-1.3-7.39-1.96-11.09 4.57-1.57 9.28-2.4 14.38-1.01.65 3.7 1.3 7.39 1.96 11.09z"/><path d="m4.8 32.56 1.53 8.67.43 2.42.73 4.15 3.76-.66-.5-2.83c3.6.23 7.02-.52 10.38-1.67-.65-3.7-1.3-7.39-1.96-11.09-4.57 1.57-9.28 2.4-14.38 1.01z"/></g></svg>