<svg height="50" viewBox="0 0 50 50" width="50" xmlns="http://www.w3.org/2000/svg"><g fill="#dadada"><path d="m18.95 18.52c.5 2.86 1.01 5.72 1.51 8.58 3.56-1.33 7.04-3.09 10.59-4.41-.5-2.86-1.01-5.72-1.51-8.58-3.56 1.33-7.04 3.09-10.59 4.41z"/><path d="m38.56.75c-11.58-1.17-21.11 9.26-32.69 8.08-1.03-.1-2.07-.3-3.14-.61l.52 2.94 3.03 17.16 1.51 8.58.52 2.94 1.67 9.49 2.94-.52-1.48-8.37c11.58 1.18 21.11-9.26 32.69-8.08 1.03.1 2.07.3 3.14.61l-.52-2.94c-1.51-8.58-3.03-17.16-4.54-25.74l-.52-2.94c-1.06-.3-2.11-.5-3.14-.61zm3.54 20.1c-3.86-.39-7.49.51-11.05 1.83l1.51 8.58c-3.56 1.33-7.04 3.08-10.6 4.41l-1.51-8.58c-3.56 1.33-7.19 2.23-11.05 1.83l-.2-1.12c-.44-2.48-.88-4.97-1.31-7.45 3.86.39 7.49-.51 11.05-1.83-.47-2.67-1.03-5.84-1.51-8.58 3.56-1.33 7.04-3.08 10.6-4.41.48 2.73 1.05 5.94 1.51 8.58 3.56-1.33 7.19-2.23 11.05-1.83l1.51 8.58z"/></g></svg>