<svg viewBox="0 0 50 50" xmlns="http://www.w3.org/2000/svg"><g fill="#0c946e"><path d="m22 37.38c-5.58-1.35-9.75-6.38-9.75-12.38s4.17-11.02 9.75-12.38v-11.43c-11.84 1.48-21 11.57-21 23.81s9.16 22.33 21 23.81z"/><path d="m28 12.62c5.58 1.35 9.75 6.38 9.75 12.38 0 2.12-.53 4.11-1.44 5.87l6.69 6.69v3.31c3.73-4.23 6-9.78 6-15.87 0-12.24-9.16-22.33-21-23.81z"/><circle cx="25" cy="25" r="6.75"/><path d="m37 40.04-4.65-4.65c-1.29.92-2.77 1.6-4.35 1.98v11.43c3.25-.41 6.29-1.46 9-3.03v-5.74z"/></g></svg>