<svg viewBox="0 0 50 50" xmlns="http://www.w3.org/2000/svg"><path d="m25 1c-13.25 0-24 10.75-24 24s10.75 24 24 24 24-10.75 24-24-10.75-24-24-24zm2.14 36.97c-.63.57-1.49.85-2.58.85s-2-.28-2.63-.84-.95-1.36-.95-2.41.3-1.85.91-2.41c.61-.57 1.5-.85 2.68-.85s2 .29 2.61.86.91 1.38.91 2.41-.31 1.83-.94 2.4zm5.54-15.02c-.64 1-1.66 1.95-3.07 2.85-1.19.77-1.94 1.33-2.24 1.69s-.45.78-.45 1.27v.87h-5.22v-1.46c0-1.11.23-2.05.68-2.81s1.26-1.51 2.41-2.24c.92-.58 1.58-1.1 1.98-1.56s.6-1 .6-1.6c0-.48-.22-.85-.65-1.13s-.99-.42-1.68-.42c-1.71 0-3.71.61-6 1.82l-2.36-4.62c2.82-1.61 5.77-2.41 8.84-2.41 2.53 0 4.51.55 5.95 1.67 1.44 1.11 2.16 2.62 2.16 4.54 0 1.37-.32 2.56-.96 3.56z" fill="#2f2f2f"/></svg>