<svg height="50" viewBox="0 0 50 50" width="50" xmlns="http://www.w3.org/2000/svg"><path d="m19.17 31.1v-2.46c0-1.87.38-3.45 1.15-4.74.76-1.29 2.12-2.54 4.07-3.76 1.55-.97 2.66-1.85 3.34-2.63s1.02-1.68 1.02-2.69c0-.8-.36-1.44-1.09-1.9-.73-.47-1.67-.7-2.83-.7-2.88 0-6.25 1.02-10.11 3.06l-3.98-7.79c4.75-2.71 9.71-4.07 14.89-4.07 4.26 0 7.6.94 10.02 2.81s3.64 4.42 3.64 7.64c0 2.31-.54 4.31-1.62 6s-2.8 3.29-5.17 4.8c-2 1.3-3.26 2.25-3.76 2.85-.51.6-.76 1.31-.76 2.13v1.46h-8.79zm-1.23 10.02c0-1.76.51-3.11 1.53-4.06s2.52-1.43 4.51-1.43 3.37.48 4.39 1.45 1.53 2.31 1.53 4.05-.53 3.08-1.59 4.04c-1.06.95-2.51 1.43-4.34 1.43s-3.37-.47-4.44-1.42-1.6-2.29-1.6-4.05z" fill="#3e3e3e"/></svg>