<svg viewBox="0 0 50 50" xmlns="http://www.w3.org/2000/svg"><g fill="#2f2f2f"><path d="m25 20.92c2.52-1.91 5.65-3.06 9.05-3.06 2.06 0 4.03.42 5.82 1.17.08-.62.13-1.25.13-1.9 0-8.28-6.72-15-15-15s-15 6.72-15 15c0 .64.05 1.27.13 1.9 1.79-.75 3.75-1.17 5.82-1.17 3.4 0 6.53 1.15 9.05 3.06z"/><path d="m19.05 32.86c0-.64.05-1.27.13-1.9-4.84-2.04-8.37-6.54-9.05-11.93-5.39 2.28-9.18 7.61-9.18 13.83 0 8.28 6.72 15 15 15 3.4 0 6.53-1.15 9.05-3.06-3.61-2.74-5.95-7.06-5.95-11.94z"/><path d="m39.87 19.03c-.68 5.39-4.21 9.89-9.05 11.93.08.62.13 1.25.13 1.9 0 4.88-2.34 9.2-5.95 11.94 2.52 1.91 5.65 3.06 9.05 3.06 8.28 0 15-6.72 15-15 0-6.22-3.79-11.56-9.18-13.83z"/></g></svg>