<svg viewBox="0 0 50 50" xmlns="http://www.w3.org/2000/svg"><g fill="#f1f1f1"><path d="m25 21.42c2.52-1.91 5.65-3.06 9.05-3.06 2.01 0 3.92.4 5.67 1.12.18-.92.28-1.87.28-2.85 0-8.28-6.72-15-15-15s-15 6.72-15 15c0 .97.1 1.92.28 2.85 1.75-.72 3.66-1.12 5.67-1.12 3.4 0 6.53 1.15 9.05 3.06z"/><path d="m19.05 33.36c0-.97.1-1.92.28-2.85-4.62-1.89-8.09-6.02-9.05-11.04-5.47 2.25-9.33 7.62-9.33 13.89 0 8.28 6.72 15 15 15 3.4 0 6.53-1.15 9.05-3.06-3.61-2.74-5.95-7.06-5.95-11.94z"/><path d="m39.72 19.48c-.96 5.02-4.43 9.15-9.05 11.04.18.92.28 1.87.28 2.85 0 4.88-2.34 9.2-5.95 11.94 2.52 1.91 5.65 3.06 9.05 3.06 8.28 0 15-6.72 15-15 0-6.28-3.86-11.64-9.33-13.88z"/></g><path d="m25 21.42c-2.89 2.19-4.96 5.4-5.67 9.1 1.75.72 3.66 1.12 5.67 1.12s3.92-.4 5.67-1.12c-.71-3.7-2.78-6.9-5.67-9.1z" fill="#e6e6e6"/></svg>