<svg height="175" viewBox="0 0 181 175" width="181" xmlns="http://www.w3.org/2000/svg"><path d="m1845.16 403.067v-75.667l-50.51-25.966c.06-.743.11-1.489.11-2.248a27.26 27.26 0 0 0 -54.52 0c0 .759.05 1.5.11 2.248l-50.51 25.966v75.664a23.271 23.271 0 1 0 20.86 0v-62.972l39.2-20.151a27.414 27.414 0 0 0 7.17 4.367v64.662a23.27 23.27 0 1 0 20.86 0v-64.662a27.2 27.2 0 0 0 7.16-4.367l39.2 20.151v62.976a23.274 23.274 0 1 0 20.87-.001z" fill="#f1f1f1" fill-rule="evenodd" transform="translate(-1677 -272)"/></svg>