<svg height="50" viewBox="0 0 50 50" width="50" xmlns="http://www.w3.org/2000/svg"><path d="m45.82 36.71v-20.34l-13.54-6.98c.02-.2.03-.4.03-.6 0-4.04-3.27-7.31-7.31-7.31s-7.31 3.27-7.31 7.31c0 .2.01.4.03.6l-13.54 6.98v20.34c-2.04 1.03-3.44 3.13-3.44 5.57 0 3.45 2.79 6.24 6.24 6.24s6.24-2.79 6.24-6.24c0-2.44-1.4-4.54-3.44-5.57v-16.93l10.51-5.42c.57.48 1.22.88 1.92 1.17v17.38c-2.04 1.03-3.44 3.13-3.44 5.57 0 3.45 2.79 6.24 6.24 6.24s6.24-2.79 6.24-6.24c0-2.44-1.4-4.54-3.44-5.57v-17.37c.7-.29 1.35-.69 1.92-1.17l10.51 5.42v16.93c-2.04 1.03-3.44 3.13-3.44 5.57 0 3.45 2.79 6.24 6.24 6.24s6.24-2.79 6.24-6.24c0-2.44-1.4-4.54-3.44-5.57z" fill="#2f2f2f"/></svg>