<svg height="175" viewBox="0 0 181 175" width="181" xmlns="http://www.w3.org/2000/svg"><path d="m904.16 403.067v-75.667l-50.513-25.966c.06-.743.113-1.489.113-2.248a27.262 27.262 0 0 0 -54.523 0c0 .759.053 1.5.114 2.248l-50.514 25.966v75.664a23.27 23.27 0 1 0 20.865 0v-62.972l39.2-20.151a27.25 27.25 0 0 0 7.161 4.367v64.662a23.27 23.27 0 1 0 20.865 0v-64.662a27.234 27.234 0 0 0 7.161-4.367l39.2 20.151v62.976a23.269 23.269 0 1 0 20.871-.001z" fill="#2f2f2f" fill-rule="evenodd" transform="translate(-736 -272)"/></svg>