<svg viewBox="0 0 50 50" xmlns="http://www.w3.org/2000/svg"><path d="m43.61 35.47v-18.18l-12.1-6.24c.01-.18.03-.36.03-.54 0-3.61-2.92-6.53-6.53-6.53s-6.53 2.92-6.53 6.53c0 .18.01.36.03.54l-12.1 6.24v18.18c-1.82.92-3.08 2.8-3.08 4.98 0 3.08 2.5 5.58 5.58 5.58s5.58-2.5 5.58-5.58c0-2.18-1.25-4.06-3.08-4.98v-15.13l9.39-4.84c.51.43 1.09.79 1.72 1.05v15.54c-1.82.92-3.08 2.8-3.08 4.98 0 3.08 2.5 5.58 5.58 5.58s5.58-2.5 5.58-5.58c0-2.18-1.25-4.06-3.08-4.98v-15.54c.63-.26 1.2-.62 1.72-1.05l9.39 4.84v15.13c-1.82.92-3.08 2.8-3.08 4.98 0 3.08 2.5 5.58 5.58 5.58s5.58-2.5 5.58-5.58c0-2.18-1.25-4.06-3.08-4.98z" fill="#f1f1f1"/></svg>