<svg height="50" viewBox="0 0 120 50" width="120" xmlns="http://www.w3.org/2000/svg"><path d="m25 1.59c-13.25 0-24 10.75-24 24 0 10.6 6.88 19.6 16.41 22.77 1.2.22 1.64-.52 1.64-1.16 0-.57-.02-2.08-.03-4.08-6.68 1.45-8.08-3.22-8.08-3.22-1.09-2.77-2.66-3.51-2.66-3.51-2.18-1.49.16-1.46.16-1.46 2.41.17 3.68 2.47 3.68 2.47 2.14 3.67 5.62 2.61 6.98 1.99.22-1.55.84-2.61 1.52-3.21-5.33-.61-10.93-2.66-10.93-11.86 0-2.62.94-4.76 2.47-6.44-.25-.61-1.07-3.05.24-6.35 0 0 2.02-.65 6.6 2.46 1.91-.53 3.97-.8 6.01-.81 2.04 0 4.09.28 6.01.81 4.58-3.11 6.59-2.46 6.59-2.46 1.31 3.3.49 5.74.24 6.35 1.54 1.68 2.47 3.82 2.47 6.44 0 9.22-5.61 11.25-10.96 11.84.86.74 1.63 2.21 1.63 4.44 0 3.21-.03 5.8-.03 6.58 0 .64.43 1.39 1.65 1.15 9.53-3.18 16.4-12.17 16.4-22.77 0-13.26-10.75-24-24-24z" fill="#f1f1f1" fill-rule="evenodd"/><circle cx="95" cy="25" fill="#f1f1f1" r="24"/><path d="m102.62 13.51c-3.17-.2-5.99 1.33-7.62 3.73-1.64-2.4-4.46-3.93-7.62-3.73-4.81.3-8.34 4.76-7.97 9.56.19 2.47 1.54 7.23 11.19 13.47l4.4 2.85 4.4-2.85c9.64-6.23 11-11 11.19-13.47.37-4.8-3.16-9.26-7.97-9.56z" fill="#f44eb2"/><path d="m54.43 23.7h4.26v-3.95h2.61v3.95h4.27v2.62h-4.27v3.94h-2.61v-3.94h-4.26z" fill="#f1f1f1"/></svg>