<svg height="199.188" viewBox="0 0 204 199.188" width="204" xmlns="http://www.w3.org/2000/svg"><path d="m1771.99 490a102.143 102.143 0 0 0 -32.24 199.017c5.1.937 6.96-2.216 6.96-4.922 0-2.424-.08-8.846-.13-17.368-28.38 6.171-34.36-13.689-34.36-13.689-4.64-11.8-11.33-14.938-11.33-14.938-9.26-6.336.7-6.207.7-6.207 10.24.722 15.63 10.523 15.63 10.523 9.09 15.605 23.87 11.1 29.68 8.485.93-6.6 3.56-11.1 6.48-13.652-22.65-2.577-46.46-11.337-46.46-50.469a39.516 39.516 0 0 1 10.49-27.4c-1.04-2.583-4.54-12.965 1-27.025 0 0 8.57-2.746 28.05 10.469a96.584 96.584 0 0 1 51.08 0c19.47-13.215 28.02-10.469 28.02-10.469 5.56 14.06 2.06 24.442 1.01 27.025a39.425 39.425 0 0 1 10.49 27.4c0 39.229-23.85 47.862-46.57 50.39 3.66 3.152 6.92 9.385 6.92 18.911 0 13.652-.12 24.665-.12 28.014 0 2.73 1.83 5.907 7.01 4.91a102.148 102.148 0 0 0 -32.31-199.005z" fill="#f1f1f1" fill-rule="evenodd" transform="translate(-1670 -490)"/></svg>