<svg viewBox="0 0 50 50" xmlns="http://www.w3.org/2000/svg"><path d="m25 1.07c-13.55 0-24.54 10.98-24.54 24.54 0 10.84 7.03 20.04 16.78 23.28 1.23.23 1.67-.53 1.67-1.18 0-.58-.02-2.13-.03-4.17-6.83 1.48-8.27-3.29-8.27-3.29-1.12-2.83-2.72-3.59-2.72-3.59-2.23-1.52.17-1.49.17-1.49 2.46.17 3.76 2.53 3.76 2.53 2.19 3.75 5.74 2.67 7.14 2.04.22-1.59.86-2.67 1.56-3.28-5.45-.62-11.18-2.72-11.18-12.13 0-2.68.96-4.87 2.53-6.58-.25-.62-1.09-3.12.24-6.49 0 0 2.06-.66 6.75 2.52 1.96-.54 4.06-.82 6.14-.83 2.08 0 4.18.28 6.14.83 4.68-3.18 6.74-2.52 6.74-2.52 1.34 3.38.5 5.87.24 6.49 1.57 1.72 2.52 3.91 2.52 6.58 0 9.43-5.74 11.5-11.2 12.11.88.76 1.67 2.26 1.67 4.54 0 3.28-.03 5.93-.03 6.73 0 .66.44 1.42 1.69 1.18 9.74-3.25 16.77-12.44 16.77-23.28 0-13.56-10.99-24.54-24.54-24.54z" fill="#f1f1f1" fill-rule="evenodd"/></svg>