<svg height="199.188" viewBox="0 0 204 199.188" width="204" xmlns="http://www.w3.org/2000/svg"><path d="m822.988 490a102.143 102.143 0 0 0 -32.235 199.017c5.1.937 6.962-2.216 6.962-4.922 0-2.424-.088-8.846-.138-17.368-28.373 6.171-34.36-13.689-34.36-13.689-4.639-11.8-11.326-14.938-11.326-14.938-9.261-6.336.7-6.207.7-6.207 10.237.722 15.624 10.523 15.624 10.523 9.1 15.605 23.874 11.1 29.685 8.485.927-6.6 3.562-11.1 6.477-13.652-22.651-2.577-46.463-11.337-46.463-50.469a39.5 39.5 0 0 1 10.5-27.4c-1.049-2.583-4.55-12.965 1-27.025 0 0 8.564-2.746 28.05 10.469a96.554 96.554 0 0 1 51.072 0c19.475-13.224 28.024-10.474 28.024-10.474 5.565 14.06 2.064 24.442 1.015 27.025a39.435 39.435 0 0 1 10.485 27.4c0 39.229-23.849 47.862-46.573 50.39 3.662 3.152 6.925 9.385 6.925 18.911 0 13.652-.125 24.665-.125 28.014 0 2.73 1.837 5.907 7.013 4.91a102.148 102.148 0 0 0 -32.312-199z" fill="#2f2f2f" fill-rule="evenodd" transform="translate(-721 -490)"/></svg>