<svg viewBox="0 0 50 50" xmlns="http://www.w3.org/2000/svg"><g fill="#356fce"><path d="m25 .79c-8.48 0-15.41 6.93-15.41 15.41v9.62c0 8.48 6.93 15.41 15.41 15.41 8.48 0 15.41-6.93 15.41-15.41v-9.62c0-8.48-6.93-15.41-15.41-15.41zm-4.8 23.45c0 .89-.72 1.61-1.61 1.61s-1.61-.72-1.61-1.61v-6.46c0-.89.72-1.61 1.61-1.61s1.61.72 1.61 1.61zm6.41 2.11c0 .89-.72 1.61-1.61 1.61s-1.61-.72-1.61-1.61v-10.68c0-.89.72-1.61 1.61-1.61s1.61.72 1.61 1.61zm6.41-2.11c0 .89-.72 1.61-1.61 1.61s-1.61-.72-1.61-1.61v-6.46c0-.89.72-1.61 1.61-1.61s1.61.72 1.61 1.61z"/><path d="m25 49.21c-10.72 0-20.18-7.42-22.5-17.64-.28-1.23.49-2.45 1.72-2.73s2.45.49 2.73 1.72c1.85 8.16 9.44 14.09 18.05 14.09s16.2-5.92 18.05-14.09c.28-1.23 1.5-2 2.73-1.72s2 1.5 1.72 2.73c-2.32 10.22-11.78 17.64-22.5 17.64z"/></g></svg>