<svg height="50" viewBox="0 0 50 50" width="50" xmlns="http://www.w3.org/2000/svg"><circle cx="25" cy="25" fill="#1694f1" r="24.5"/><g fill="#070710"><path d="m25 8.1c-5.92 0-10.76 4.84-10.76 10.76v6.71c0 5.92 4.84 10.76 10.76 10.76 5.92 0 10.76-4.84 10.76-10.76v-6.71c0-5.92-4.84-10.76-10.76-10.76zm-3.35 16.37c0 .62-.5 1.12-1.12 1.12s-1.12-.5-1.12-1.12v-4.51c0-.62.5-1.12 1.12-1.12s1.12.5 1.12 1.12zm4.47 1.48c0 .62-.5 1.12-1.12 1.12s-1.12-.5-1.12-1.12v-7.46c0-.62.5-1.12 1.12-1.12s1.12.5 1.12 1.12zm4.48-1.48c0 .62-.5 1.12-1.12 1.12s-1.12-.5-1.12-1.12v-4.51c0-.62.5-1.12 1.12-1.12s1.12.5 1.12 1.12z"/><path d="m25 41.9c-7.48 0-14.09-5.18-15.71-12.31-.19-.86.34-1.71 1.2-1.91.86-.19 1.71.34 1.91 1.2 1.29 5.7 6.59 9.83 12.6 9.83s11.31-4.13 12.6-9.83c.19-.86 1.05-1.39 1.91-1.2s1.4 1.05 1.2 1.91c-1.62 7.13-8.23 12.31-15.71 12.31z"/></g></svg>