<svg viewBox="0 0 50 50" xmlns="http://www.w3.org/2000/svg"><circle cx="25" cy="25" fill="#1694f1" r="24.5"/><g fill="#070710"><path d="m25 6.02c-6.65 0-12.09 5.44-12.09 12.09v7.54c0 6.65 5.44 12.09 12.09 12.09 6.65 0 12.09-5.44 12.09-12.09v-7.54c0-6.65-5.44-12.09-12.09-12.09zm-3.76 18.39c0 .7-.57 1.26-1.26 1.26s-1.26-.57-1.26-1.26v-5.07c0-.7.57-1.26 1.26-1.26s1.26.57 1.26 1.26zm5.03 1.66c0 .7-.57 1.26-1.26 1.26s-1.26-.57-1.26-1.26v-8.38c0-.7.57-1.26 1.26-1.26s1.26.57 1.26 1.26zm5.03-1.66c0 .7-.57 1.26-1.26 1.26s-1.26-.57-1.26-1.26v-5.07c0-.7.57-1.26 1.26-1.26s1.26.57 1.26 1.26z"/><path d="m25 43.98c-8.41 0-15.83-5.82-17.65-13.83-.22-.96.39-1.92 1.35-2.14s1.92.39 2.14 1.35c1.45 6.4 7.41 11.05 14.16 11.05s12.7-4.65 14.16-11.05c.22-.96 1.18-1.57 2.14-1.35s1.57 1.18 1.35 2.14c-1.82 8.02-9.24 13.83-17.65 13.83z"/></g></svg>