<svg viewBox="0 0 50 50" xmlns="http://www.w3.org/2000/svg"><path d="m25 1c-13.25 0-24 10.75-24 24s10.75 24 24 24 24-10.75 24-24-10.75-24-24-24zm2.32 38.06c-.87.59-1.89.89-3.07.89s-2.29-.3-3.16-.89c-.87-.6-1.3-1.56-1.3-2.9 0-1.4.43-2.39 1.3-2.96s1.92-.85 3.16-.85 2.21.28 3.07.85c.87.57 1.3 1.55 1.3 2.96s-.43 2.3-1.3 2.9zm7.71-18.94c-.34.86-.87 1.67-1.61 2.42-.73.75-1.7 1.5-2.9 2.22-.85.5-1.51.93-2 1.29s-.83.7-1.04 1.03c-.2.33-.31.71-.31 1.13v1.01h-6.49v-1.71c0-.82.11-1.56.33-2.22s.61-1.29 1.17-1.88 1.35-1.19 2.35-1.79c.96-.57 1.66-1.06 2.11-1.48s.75-.8.89-1.15.21-.7.21-1.06c0-.56-.27-1-.8-1.32-.54-.32-1.23-.49-2.09-.49-1.07 0-2.23.18-3.48.54s-2.57.89-3.98 1.59l-2.94-5.4c1.59-.86 3.29-1.54 5.09-2.05s3.77-.76 5.9-.76c3.2 0 5.68.66 7.44 1.99s2.64 3.08 2.64 5.25c0 1.03-.17 1.98-.51 2.84z" fill="#2f2f2f"/></svg>