<svg height="200" viewBox="0 0 200 200" width="200" xmlns="http://www.w3.org/2000/svg"><path d="m1772 729a100 100 0 1 0 100 100 100 100 0 0 0 -100-100zm9.69 158.6a22.088 22.088 0 0 1 -12.82 3.719 22.7 22.7 0 0 1 -13.16-3.719q-5.415-3.723-5.41-12.069 0-8.758 5.41-12.317a23.476 23.476 0 0 1 13.16-3.552 22.835 22.835 0 0 1 12.82 3.552q5.415 3.558 5.41 12.317 0 8.355-5.41 12.069zm32.09-78.939a30.546 30.546 0 0 1 -6.69 10.083 60.763 60.763 0 0 1 -12.06 9.257q-5.295 3.144-8.33 5.375a16.516 16.516 0 0 0 -4.31 4.3 8.8 8.8 0 0 0 -1.28 4.712v4.216h-27.03v-7.104a29.139 29.139 0 0 1 1.37-9.257 21.061 21.061 0 0 1 4.88-7.853 45.53 45.53 0 0 1 9.78-7.438 54.659 54.659 0 0 0 8.8-6.157 14.286 14.286 0 0 0 3.7-4.8 11.693 11.693 0 0 0 .88-4.419 6.185 6.185 0 0 0 -3.35-5.5 16.627 16.627 0 0 0 -8.71-2.027 53 53 0 0 0 -14.49 2.23 98.591 98.591 0 0 0 -16.6 6.617l-12.24-22.486a104 104 0 0 1 21.23-8.553 90.163 90.163 0 0 1 24.56-3.182q19.995 0 31 8.3t11.01 21.863a32 32 0 0 1 -2.12 11.827z" fill="#f1f1f1" fill-rule="evenodd" transform="translate(-1672 -729)"/></svg>