<svg height="200" viewBox="0 0 200 200" width="200" xmlns="http://www.w3.org/2000/svg"><path d="m827 728a100 100 0 1 0 100 100 100 100 0 0 0 -100-100zm9.685 158.6a22.077 22.077 0 0 1 -12.811 3.719 22.7 22.7 0 0 1 -13.165-3.719q-5.413-3.723-5.414-12.069 0-8.758 5.414-12.317a23.481 23.481 0 0 1 13.165-3.552 22.823 22.823 0 0 1 12.811 3.552q5.418 3.558 5.416 12.317-.001 8.355-5.416 12.069zm32.1-78.939a30.522 30.522 0 0 1 -6.692 10.083 60.662 60.662 0 0 1 -12.065 9.257q-5.281 3.144-8.32 5.375a16.49 16.49 0 0 0 -4.316 4.3 8.8 8.8 0 0 0 -1.275 4.712v4.216h-27.036v-7.104a29.4 29.4 0 0 1 1.365-9.257 21.083 21.083 0 0 1 4.887-7.853 45.4 45.4 0 0 1 9.774-7.438 54.653 54.653 0 0 0 8.805-6.157 14.281 14.281 0 0 0 3.7-4.8 11.769 11.769 0 0 0 .879-4.419 6.18 6.18 0 0 0 -3.345-5.5 16.661 16.661 0 0 0 -8.718-2.027 52.929 52.929 0 0 0 -14.485 2.23 98.442 98.442 0 0 0 -16.6 6.617l-12.239-22.486a103.855 103.855 0 0 1 21.221-8.553 90.214 90.214 0 0 1 24.567-3.182q19.986 0 31 8.3t11.008 21.87a32.039 32.039 0 0 1 -2.118 11.82z" fill="#2f2f2f" fill-rule="evenodd" transform="translate(-727 -728)"/></svg>