<svg height="50" viewBox="0 0 50 50" width="50" xmlns="http://www.w3.org/2000/svg"><circle cx="25" cy="25" fill="#f1f1f1" r="23.5"/><path d="m25 1c-13.25 0-24 10.75-24 24s10.75 24 24 24 24-10.75 24-24-10.75-24-24-24zm9.94 28.27-.91 12.46-3.99-.29.67-9.15-5.45-1.45-3.11 6.04-11.17 3.32-1.14-3.83 9.54-2.83 3.03-5.89 2.35-9.29-4.11.85.61 6.48-3.98.38-.94-10.05 9.18-1.9c-1.12-.78-1.85-2.06-1.85-3.53 0-2.37 1.92-4.3 4.3-4.3s4.3 1.92 4.3 4.3c0 1.94-1.3 3.57-3.07 4.1l3.65 4.65 4.5-4.53 2.83 2.82-7.69 7.73-4.06-5.17-1.74 6.89 8.27 2.2z" fill="#aa66de"/></svg>