<svg height="154" viewBox="0 0 182 154" width="182" xmlns="http://www.w3.org/2000/svg"><path d="m1442 1459v66.14h182v-66.14zm24.52 40.87a16.26 16.26 0 1 1 16.2-16.26 16.228 16.228 0 0 1 -16.2 16.26zm48.6 0a16.26 16.26 0 1 1 16.21-16.26 16.235 16.235 0 0 1 -16.21 16.26zm-73.12 46.99v66.13h182v-66.13zm24.52 40.87a16.265 16.265 0 1 1 16.2-16.26 16.228 16.228 0 0 1 -16.2 16.26zm48.6 0a16.265 16.265 0 1 1 16.21-16.26 16.235 16.235 0 0 1 -16.21 16.26z" fill="#f1f1f1" fill-rule="evenodd" transform="translate(-1442 -1459)"/></svg>