<svg height="154" viewBox="0 0 182 154" width="182" xmlns="http://www.w3.org/2000/svg"><path d="m499 1459v66.14h182v-66.14zm24.522 40.87a16.26 16.26 0 1 1 16.2-16.26 16.231 16.231 0 0 1 -16.204 16.26zm48.607 0a16.26 16.26 0 1 1 16.2-16.26 16.231 16.231 0 0 1 -16.204 16.26zm-73.129 46.99v66.13h182v-66.13zm24.522 40.87a16.265 16.265 0 1 1 16.2-16.26 16.231 16.231 0 0 1 -16.204 16.26zm48.607 0a16.265 16.265 0 1 1 16.2-16.26 16.231 16.231 0 0 1 -16.204 16.26z" fill="#2f2f2f" fill-rule="evenodd" transform="translate(-499 -1459)"/></svg>