<svg height="169" viewBox="0 0 182 169" width="182" xmlns="http://www.w3.org/2000/svg"><path d="m1444 1451.99v47.48h182v-47.48zm20.48 32.61a12.15 12.15 0 1 1 12.16-12.15 12.152 12.152 0 0 1 -12.16 12.15zm32.4 0a12.15 12.15 0 1 1 12.16-12.15 12.152 12.152 0 0 1 -12.16 12.15zm32.41 0a12.15 12.15 0 1 1 12.16-12.15 12.161 12.161 0 0 1 -12.16 12.15zm-85.29 28.15v47.48h182v-47.48zm20.48 32.62a12.155 12.155 0 1 1 12.16-12.16 12.155 12.155 0 0 1 -12.16 12.16zm32.4 0a12.155 12.155 0 1 1 12.16-12.16 12.155 12.155 0 0 1 -12.16 12.16zm32.41 0a12.155 12.155 0 1 1 12.16-12.16 12.163 12.163 0 0 1 -12.16 12.16zm-85.29 28.14v47.49h182v-47.49zm20.48 32.62a12.15 12.15 0 1 1 12.16-12.15 12.152 12.152 0 0 1 -12.16 12.15zm32.4 0a12.15 12.15 0 1 1 12.16-12.15 12.152 12.152 0 0 1 -12.16 12.15zm32.41 0a12.15 12.15 0 1 1 12.16-12.15 12.161 12.161 0 0 1 -12.16 12.15z" fill="#f1f1f1" fill-rule="evenodd" transform="translate(-1444 -1452)"/></svg>