<svg height="169" viewBox="0 0 182 169" width="182" xmlns="http://www.w3.org/2000/svg"><path d="m501 1451.99v47.48h182v-47.48zm20.481 32.61a12.15 12.15 0 1 1 12.162-12.15 12.156 12.156 0 0 1 -12.166 12.15zm32.4 0a12.15 12.15 0 1 1 12.161-12.15 12.156 12.156 0 0 1 -12.16 12.15zm32.405 0a12.15 12.15 0 1 1 12.161-12.15 12.155 12.155 0 0 1 -12.16 12.15zm-85.286 28.15v47.48h182v-47.48zm20.481 32.62a12.155 12.155 0 1 1 12.162-12.16 12.158 12.158 0 0 1 -12.166 12.16zm32.4 0a12.155 12.155 0 1 1 12.161-12.16 12.158 12.158 0 0 1 -12.16 12.16zm32.405 0a12.155 12.155 0 1 1 12.161-12.16 12.158 12.158 0 0 1 -12.16 12.16zm-85.286 28.14v47.49h182v-47.49zm20.481 32.62a12.15 12.15 0 1 1 12.162-12.15 12.156 12.156 0 0 1 -12.166 12.15zm32.4 0a12.15 12.15 0 1 1 12.161-12.15 12.156 12.156 0 0 1 -12.16 12.15zm32.405 0a12.15 12.15 0 1 1 12.161-12.15 12.155 12.155 0 0 1 -12.16 12.15z" fill="#2f2f2f" fill-rule="evenodd" transform="translate(-501 -1452)"/></svg>