<svg height="180" viewBox="0 0 119 180" width="119" xmlns="http://www.w3.org/2000/svg"><path d="m568.21 1088.42v-10.26q0-11.7 4.776-19.76t16.948-15.69q9.668-6.09 13.906-10.99a16.644 16.644 0 0 0 4.236-11.21 9.028 9.028 0 0 0 -4.535-7.94q-4.539-2.925-11.818-2.92-18.023 0-42.131 12.77l-16.592-32.469q29.72-16.951 62.066-16.951 26.614 0 41.774 11.7t15.16 31.87q0 14.445-6.744 25-6.745 10.575-21.544 20-12.531 8.115-15.7 11.87a13.39 13.39 0 0 0 -3.164 8.9v6.08zm-5.132 41.78q0-10.98 6.385-16.95t18.8-5.97q11.932 0 18.32 6.03t6.388 16.89q0 10.86-6.626 16.83t-18.082 5.97q-11.816 0-18.5-5.91t-6.685-16.89z" fill="#dadada" fill-rule="evenodd" transform="translate(-533 -973)"/></svg>