<svg xmlns="http://www.w3.org/2000/svg" width="200" height="198" viewBox="0 0 200 198"><defs><style>.cls-1{fill:#0c946e;fill-rule:evenodd}</style></defs><path id="branch_dark.svg" data-name="branch~dark.svg" class="cls-1" d="M1528.5 887.475a52.929 52.929 0 010-102.956V737a99.758 99.758 0 000 198v-47.525zm25-102.956a52.852 52.852 0 0134.62 75.876l27.88 27.832v13.75A99.7 99.7 0 001553.5 737v47.524zM1512.88 836a28.12 28.12 0 1028.12-28.07 28.125 28.125 0 00-28.12 28.07zm78.12 62.558l-19.36-19.323a52.829 52.829 0 01-18.14 8.24V935a99.429 99.429 0 0037.5-12.581v-23.86z" transform="translate(-1441 -737)"/></svg>