<svg xmlns="http://www.w3.org/2000/svg" width="200" height="198" viewBox="0 0 200 198"><defs><style>.cls-1{fill:#0c946e;fill-rule:evenodd}</style></defs><path id="branch_dark.svg" data-name="branch~dark.svg" class="cls-1" d="M1520.5 877.475a52.926 52.926 0 010-102.956V727a99.758 99.758 0 000 198v-47.525zm25-102.956a52.831 52.831 0 0134.62 75.876l27.88 27.832v13.75A99.7 99.7 0 001545.5 727v47.524zM1504.87 826a28.13 28.13 0 1028.13-28.07 28.134 28.134 0 00-28.13 28.07zm78.13 62.558l-19.36-19.323a52.829 52.829 0 01-18.14 8.24V925a99.429 99.429 0 0037.5-12.581v-23.86z" transform="translate(-1433 -727)"/></svg>