<svg xmlns="http://www.w3.org/2000/svg" width="200" height="198" viewBox="0 0 200 198"><defs><style>.cls-1{fill:#027353;fill-rule:evenodd}</style></defs><path id="branch.svg" class="cls-1" d="M579.5 879.475a52.928 52.928 0 010-102.956V729a99.758 99.758 0 000 198v-47.525zm25-102.956A53.093 53.093 0 01645.125 828a52.561 52.561 0 01-6.008 24.4L667 880.227v13.75A99.7 99.7 0 00604.5 729v47.524zM563.875 828A28.125 28.125 0 10592 799.927 28.13 28.13 0 00563.875 828zM642 890.558l-19.359-19.323a52.893 52.893 0 01-18.141 8.24V927a99.459 99.459 0 0037.5-12.582v-23.86z" transform="translate(-492 -729)"/></svg>