<svg id="Layer_1" data-name="Layer 1" xmlns="http://www.w3.org/2000/svg" viewBox="0 0 50 50">
  <path d="M19.17,31.1V28.64a9.19,9.19,0,0,1,1.15-4.74,12,12,0,0,1,4.06-3.77,15.25,15.25,0,0,0,3.34-2.63,4,4,0,0,0,1-2.69,2.19,2.19,0,0,0-1.09-1.91,5.24,5.24,0,0,0-2.84-.7q-4.32,0-10.1,3.07l-4-7.79A29.63,29.63,0,0,1,25.62,3.41q6.38,0,10,2.81a9.14,9.14,0,0,1,3.63,7.64,10.9,10.9,0,0,1-1.62,6,16.45,16.45,0,0,1-5.16,4.8,19.82,19.82,0,0,0-3.77,2.84A3.28,3.28,0,0,0,28,29.64V31.1Zm-1.23,10a5.31,5.31,0,0,1,1.53-4.07A6.42,6.42,0,0,1,24,35.62a6.15,6.15,0,0,1,4.4,1.45,5.29,5.29,0,0,1,1.53,4,5.13,5.13,0,0,1-1.59,4A6.21,6.21,0,0,1,24,46.59a6.46,6.46,0,0,1-4.43-1.42A5.13,5.13,0,0,1,17.94,41.12Z"/>
</svg>
