<svg id="Layer_1" data-name="Layer 1" xmlns="http://www.w3.org/2000/svg" viewBox="0 0 50 50"><defs><style>.cls-1{fill:#1d1d1d}</style></defs><path class="cls-1" d="M24.88 24.52h-.73v-3.73h.49A1.65 1.65 0 0026 20.2a2.53 2.53 0 00.47-1.59 2.08 2.08 0 00-.54-1.54 1.91 1.91 0 00-1.41-.54 1.85 1.85 0 00-1.59.68 3.48 3.48 0 00-.51 2.08v9.24a3.38 3.38 0 001.12.48 4.88 4.88 0 001.33.2 2.81 2.81 0 001.94-.62 2.33 2.33 0 00.71-1.87 2 2 0 00-.69-1.6 2.87 2.87 0 00-1.95-.6z"/><path class="cls-1" d="M25 1a24 24 0 1024 24A24 24 0 0025 1zm5.92 30.54a6.21 6.21 0 01-4.48 1.61 11.92 11.92 0 01-2.3-.21 6.53 6.53 0 01-1.73-.55v6.81h-5V18.84a5.46 5.46 0 011.92-4.46 8.18 8.18 0 015.36-1.58 8.21 8.21 0 015 1.34 4.42 4.42 0 011.8 3.74 4.38 4.38 0 01-.94 3 4.31 4.31 0 01-2.66 1.38v.1a5.85 5.85 0 013.61 1.53 4.68 4.68 0 011.15 3.33 5.73 5.73 0 01-1.73 4.32z"/></svg>