<svg xmlns="http://www.w3.org/2000/svg" width="200" height="198" viewBox="0 0 200 198"><defs><style>.cls-1{fill:#2f2f2f;fill-rule:evenodd}</style></defs><path id="circle_branch.svg" class="cls-1" d="M814.5 877.475a52.928 52.928 0 010-102.956V727a99.758 99.758 0 000 198v-47.525zm25-102.956A53.093 53.093 0 01880.125 826a52.561 52.561 0 01-6.008 24.4L902 878.227v13.75A99.7 99.7 0 00839.5 727v47.524zM798.875 826A28.125 28.125 0 10827 797.927 28.13 28.13 0 00798.875 826zM877 888.558l-19.359-19.323a52.9 52.9 0 01-18.141 8.24V925a99.459 99.459 0 0037.5-12.582v-23.86z" transform="translate(-727 -727)"/></svg>