<svg id="Layer_1" data-name="Layer 1" xmlns="http://www.w3.org/2000/svg" viewBox="0 0 50 50"><defs><style>.cls-1{fill:#f1f1f1}</style></defs><path class="cls-1" d="M25 1a24 24 0 1024 24A24 24 0 0025 1zm2.14 37a3.74 3.74 0 01-2.57.85 3.84 3.84 0 01-2.64-.85 3.08 3.08 0 01-.93-2.43 3.11 3.11 0 01.91-2.41 3.77 3.77 0 012.68-.85 3.64 3.64 0 012.6.85 3.16 3.16 0 01.91 2.41 3.07 3.07 0 01-.96 2.43zm5.54-15a9.83 9.83 0 01-3.07 2.85 11.61 11.61 0 00-2.23 1.69 1.89 1.89 0 00-.45 1.26v.87h-5.22v-1.51a5.44 5.44 0 01.68-2.81 7.14 7.14 0 012.41-2.24 9.16 9.16 0 002-1.56 2.36 2.36 0 00.61-1.6 1.29 1.29 0 00-.65-1.13 3 3 0 00-1.68-.42 13.28 13.28 0 00-6 1.82l-2.39-4.62a17.62 17.62 0 018.84-2.42 9.52 9.52 0 015.95 1.67 5.42 5.42 0 012.16 4.54 6.47 6.47 0 01-.96 3.61z"/></svg>