<svg xmlns="http://www.w3.org/2000/svg" width="200" height="200" viewBox="0 0 200 200"><defs><style>.cls-1{fill:#2f2f2f;fill-rule:evenodd}</style></defs><path id="circle_beta.svg" class="cls-1" d="M590.52 824.994h-3.048v-15.548h2.028a6.787 6.787 0 005.611-2.461 10.263 10.263 0 001.977-6.625 8.688 8.688 0 00-2.242-6.412 7.949 7.949 0 00-5.879-2.247q-4.542 0-6.653 2.861t-2.112 8.63v38.53a14.267 14.267 0 004.675 2 21.481 21.481 0 005.534.83q5.127 0 8.093-2.592t2.967-7.776a8.4 8.4 0 00-2.885-6.706q-2.886-2.478-8.066-2.484zM591 727a100 100 0 10100 100 100 100 0 00-100-100zm24.687 127.25q-7 6.708-18.7 6.71a49.2 49.2 0 01-9.566-.883 28.86 28.86 0 01-7.214-2.27v28.373h-20.9v-84.86q0-11.969 7.992-18.566t22.311-6.6q13.249 0 20.759 5.611t7.508 15.548q0 7.91-3.927 12.451t-11.092 5.721v.427q10.26 1.336 15.043 6.384t4.786 13.867q.003 11.383-7 18.087z" transform="translate(-491 -727)"/></svg>