<svg xmlns="http://www.w3.org/2000/svg" width="200" height="200" viewBox="0 0 200 200">
  <defs>
    <style>
      .cls-1 {
        fill: #2f2f2f;
        fill-rule: evenodd;
      }
    </style>
  </defs>
  <path id="circle_beta.svg" class="cls-1" d="M590.52,824.994h-3.048V809.446H589.5a6.787,6.787,0,0,0,5.611-2.461,10.263,10.263,0,0,0,1.977-6.625,8.688,8.688,0,0,0-2.242-6.412,7.949,7.949,0,0,0-5.879-2.247q-4.542,0-6.653,2.861t-2.112,8.63v38.53a14.267,14.267,0,0,0,4.675,2,21.481,21.481,0,0,0,5.534.83q5.127,0,8.093-2.592t2.967-7.776a8.4,8.4,0,0,0-2.885-6.706Q595.7,825,590.52,824.994ZM591,727A100,100,0,1,0,691,827,100,100,0,0,0,591,727Zm24.687,127.25q-7,6.708-18.7,6.71a49.2,49.2,0,0,1-9.566-.883,28.86,28.86,0,0,1-7.214-2.27V886.18h-20.9V801.32q0-11.969,7.992-18.566t22.311-6.6q13.249,0,20.759,5.611t7.508,15.548q0,7.91-3.927,12.451t-11.092,5.721v0.427q10.26,1.336,15.043,6.384t4.786,13.867Q622.69,847.546,615.687,854.25Z" transform="translate(-491 -727)"/>
</svg>
