<svg xmlns="http://www.w3.org/2000/svg" width="200" height="198" viewBox="0 0 200 198"><defs><style>.cls-1{fill:#f1f1f1;fill-rule:evenodd}</style></defs><path id="circle_branch_dark.svg" data-name="circle_branch~dark.svg" class="cls-1" d="M1764.5 877.475a52.929 52.929 0 010-102.956V727a99.758 99.758 0 000 198v-47.525zm25-102.956a52.852 52.852 0 0134.62 75.876l27.88 27.832v13.75A99.7 99.7 0 001789.5 727v47.524zM1748.88 826a28.12 28.12 0 1028.12-28.07 28.125 28.125 0 00-28.12 28.07zm78.12 62.558l-19.36-19.323a52.829 52.829 0 01-18.14 8.24V925a99.429 99.429 0 0037.5-12.581v-23.86z" transform="translate(-1677 -727)"/></svg>