<svg xmlns="http://www.w3.org/2000/svg" width="200" height="198" viewBox="0 0 200 198">
  <defs>
    <style>
      .cls-1 {
        fill: #2f2f2f;
        fill-rule: evenodd;
      }
    </style>
  </defs>
  <path id="circle_branch.svg" class="cls-1" d="M814.5,877.475a52.928,52.928,0,0,1,0-102.956V727a99.758,99.758,0,0,0,0,198V877.475Zm25-102.956A53.093,53.093,0,0,1,880.125,826a52.561,52.561,0,0,1-6.008,24.4L902,878.227v13.75A99.7,99.7,0,0,0,839.5,727v47.524ZM798.875,826A28.125,28.125,0,1,0,827,797.927,28.13,28.13,0,0,0,798.875,826ZM877,888.558l-19.359-19.323a52.9,52.9,0,0,1-18.141,8.24V925A99.459,99.459,0,0,0,877,912.418v-23.86Z" transform="translate(-727 -727)"/>
</svg>
