<svg xmlns="http://www.w3.org/2000/svg" width="200" height="200" viewBox="0 0 200 200">
  <defs>
    <style>
      .cls-1 {
        fill: #f58e36;
        fill-rule: evenodd;
      }
    </style>
  </defs>
  <path id="circle_question_mark.svg" class="cls-1" d="M359,490A100,100,0,1,0,459,590,100,100,0,0,0,359,490Zm8.919,154.03q-3.93,3.54-10.73,3.54-7.012,0-10.978-3.5t-3.967-10.026q0-6.513,3.79-10.055t11.155-3.544q7.08,0,10.873,3.577t3.788,10.022Q371.85,640.493,367.919,644.03Zm23.09-62.577q-4,6.268-12.785,11.865-7.437,4.817-9.314,7.048a7.932,7.932,0,0,0-1.876,5.273v3.613H345.29v-6.091a22.63,22.63,0,0,1,2.833-11.723q2.834-4.777,10.057-9.313a37.813,37.813,0,0,0,8.252-6.515,9.891,9.891,0,0,0,2.515-6.657,5.355,5.355,0,0,0-2.692-4.712,12.761,12.761,0,0,0-7.013-1.733q-10.694,0-25,7.576L324.4,550.818a73.347,73.347,0,0,1,36.831-10.055q15.792,0,24.79,6.942t9,18.908A27,27,0,0,1,391.009,581.453Z" transform="translate(-259 -490)"/>
</svg>
