<svg xmlns="http://www.w3.org/2000/svg" width="200.97" height="195.75" viewBox="0 0 200.97 195.75"><defs><style>.cls-1{fill:#f1f1f1;fill-rule:evenodd}</style></defs><path id="github_dark.svg" data-name="github~dark.svg" class="cls-1" d="M1526.06 257.641c-48.86 3.049-89.09 41.935-93.59 90.624a100.392 100.392 0 0068.28 104.766c5.03.921 6.86-2.178 6.86-4.838 0-2.382-.08-8.693-.13-17.069-27.95 6.065-33.85-13.453-33.85-13.453-4.57-11.594-11.16-14.68-11.16-14.68-9.12-6.227.69-6.1.69-6.1 10.09.71 15.39 10.343 15.39 10.343 8.97 15.336 23.52 10.908 29.25 8.338.91-6.485 3.51-10.908 6.38-13.416-22.32-2.533-45.77-11.143-45.77-49.6a38.753 38.753 0 0110.34-26.931c-1.04-2.539-4.48-12.743.98-26.56 0 0 8.44-2.7 27.64 10.288a95.35 95.35 0 0150.31 0c19.18-12.987 27.6-10.288 27.6-10.288 5.49 13.817 2.04 24.021 1 26.56a38.7 38.7 0 0110.33 26.931c0 38.554-23.49 47.038-45.88 49.522 3.61 3.1 6.82 9.224 6.82 18.586 0 13.417-.12 24.241-.12 27.531 0 2.684 1.81 5.807 6.91 4.827a100.367 100.367 0 00-38.28-195.381z" transform="translate(-1432.03 -257.469)"/></svg>