<svg id="Layer_1" data-name="Layer 1" xmlns="http://www.w3.org/2000/svg" viewBox="0 0 50 50"><defs><style>.cls-1{fill:#1d1d1d}</style></defs><path class="cls-1" d="M19.17 31.1v-2.46a9.19 9.19 0 011.15-4.74 12 12 0 014.06-3.77 15.25 15.25 0 003.34-2.63 4 4 0 001-2.69 2.19 2.19 0 00-1.09-1.91 5.24 5.24 0 00-2.84-.7q-4.32 0-10.1 3.07l-4-7.79a29.63 29.63 0 0114.93-4.07q6.38 0 10 2.81a9.14 9.14 0 013.63 7.64 10.9 10.9 0 01-1.62 6 16.45 16.45 0 01-5.16 4.8 19.82 19.82 0 00-3.77 2.84 3.28 3.28 0 00-.7 2.14v1.46zm-1.23 10a5.31 5.31 0 011.53-4.07A6.42 6.42 0 0124 35.62a6.15 6.15 0 014.4 1.45 5.29 5.29 0 011.53 4 5.13 5.13 0 01-1.59 4A6.21 6.21 0 0124 46.59a6.46 6.46 0 01-4.43-1.42 5.13 5.13 0 01-1.63-4.05z"/></svg>