<svg xmlns="http://www.w3.org/2000/svg" width="119" height="180" viewBox="0 0 119 180"><defs><style>.cls-1{fill:#2f2f2f;fill-rule:evenodd}</style></defs><path id="question_mark.svg" class="cls-1" d="M90.21 852.424v-10.265q0-11.7 4.775-19.755t16.948-15.7q9.668-6.088 13.906-10.983a16.653 16.653 0 004.236-11.217 9.021 9.021 0 00-4.535-7.937q-4.539-2.924-11.818-2.925-18.022 0-42.131 12.77L55 753.951Q84.72 737 117.066 737q26.614 0 41.774 11.7T174 780.57q0 14.44-6.744 25t-21.544 19.993q-12.531 8.116-15.7 11.875a13.387 13.387 0 00-3.164 8.893v6.089H90.21zM85.078 894.2q0-10.978 6.385-16.946t18.8-5.968q11.933 0 18.32 6.029t6.388 16.885q0 10.866-6.626 16.831T110.263 917q-11.816 0-18.5-5.911T85.078 894.2z" transform="translate(-55 -737)"/></svg>