<svg xmlns="http://www.w3.org/2000/svg" width="119" height="180" viewBox="0 0 119 180">
  <defs>
    <style>
      .cls-1 {
        fill: #f1f1f1;
        fill-rule: evenodd;
      }
    </style>
  </defs>
  <path id="question_mark_dark.svg" data-name="question_mark~dark.svg" class="cls-1" d="M1040.21,852.424V842.159q0-11.7,4.78-19.755t16.94-15.7q9.675-6.088,13.91-10.983a16.666,16.666,0,0,0,4.24-11.217,9.03,9.03,0,0,0-4.54-7.937c-3.03-1.949-6.96-2.925-11.82-2.925q-18.015,0-42.13,12.77L1005,753.951Q1034.715,737,1067.07,737q26.61,0,41.77,11.7T1124,780.57q0,14.44-6.74,25t-21.55,19.993q-12.525,8.116-15.69,11.875a13.382,13.382,0,0,0-3.17,8.893v6.089h-36.64Zm-5.13,41.773q0-10.978,6.38-16.946t18.8-5.968q11.94,0,18.32,6.029t6.39,16.885q0,10.866-6.62,16.831T1060.26,917q-11.8,0-18.5-5.911Q1035.085,905.181,1035.08,894.2Z" transform="translate(-1005 -737)"/>
</svg>
