<svg xmlns="http://www.w3.org/2000/svg" width="200" height="196" viewBox="0 0 200 196">
  <defs>
    <style>
      .cls-1 {
        fill: #2f2f2f;
        fill-rule: evenodd;
      }
    </style>
  </defs>
  <path id="speech_bubble.svg" class="cls-1" d="M653.5,28h-125A37.626,37.626,0,0,0,491,65.532V140.6a37.627,37.627,0,0,0,37.5,37.532h81.272c2,2.578,3.917,5.334,5.86,8.34,10.825,16.743,11.736,25.981,4.555,37.532,28.832-11.551,38.747-20.789,49.572-37.532,4.515-6.983,7.209-12.627,8.407-17.711A37.447,37.447,0,0,0,691,140.6V65.532A37.626,37.626,0,0,0,653.5,28Z" transform="translate(-491 -28)"/>
</svg>
