<svg xmlns="http://www.w3.org/2000/svg" width="119" height="180" viewBox="0 0 119 180"><defs><style>.cls-1{fill:#2f2f2f;fill-rule:evenodd}</style></defs><path id="unknown_dark.svg" data-name="unknown~dark.svg" class="cls-1" d="M1508.21 1095.42v-10.26q0-11.7 4.78-19.76t16.94-15.69q9.675-6.09 13.91-10.99a16.658 16.658 0 004.24-11.21 9.037 9.037 0 00-4.54-7.94c-3.03-1.95-6.96-2.92-11.82-2.92q-18.015 0-42.13 12.77L1473 996.951Q1502.715 980 1535.07 980q26.61 0 41.77 11.7t15.16 31.87q0 14.445-6.74 25-6.75 10.575-21.55 20-12.525 8.115-15.69 11.87a13.385 13.385 0 00-3.17 8.9v6.08h-36.64zm-5.13 41.78q0-10.98 6.38-16.95t18.8-5.97q11.94 0 18.32 6.03t6.39 16.89q0 10.86-6.62 16.83t-18.09 5.97q-11.8 0-18.5-5.91-6.675-5.91-6.68-16.89z" transform="translate(-1473 -980)"/></svg>