<svg enable-background="new 0 0 42.52 42.52" height="42.52" viewBox="0 0 42.52 42.52" width="42.52" xmlns="http://www.w3.org/2000/svg"><path d="m30.749 10.273c-3.499-.259-6.469 1.955-8.126 1.955-1.682 0-4.273-1.899-7.021-1.847-3.608.052-6.935 2.099-8.795 5.331-3.747 6.504-.956 16.144 2.694 21.424 1.785 2.578 3.915 5.485 6.713 5.381 2.694-.107 3.713-1.742 6.966-1.742 3.254 0 4.172 1.742 7.019 1.689 2.898-.055 4.734-2.633 6.507-5.227 2.052-2.994 2.895-5.893 2.944-6.047-.064-.023-5.649-2.168-5.705-8.602-.051-5.38 4.393-7.967 4.593-8.092-2.521-3.712-6.416-4.121-7.789-4.223z"/><path d="m28.591 6.788c1.485-1.796 2.486-4.299 2.21-6.788-2.138.085-4.727 1.425-6.261 3.221-1.375 1.591-2.583 4.139-2.254 6.577 2.386.183 4.818-1.213 6.305-3.01z"/></svg>