<svg enable-background="new 0 0 42.52 42.52" height="42.52" viewBox="0 0 42.52 42.52" width="42.52" xmlns="http://www.w3.org/2000/svg"><g fill="#fff"><path d="m30.749 10.273c-3.499-.259-6.47 1.955-8.126 1.955-1.683 0-4.273-1.898-7.021-1.847-3.607.052-6.935 2.099-8.795 5.331-3.747 6.504-.956 16.144 2.694 21.424 1.785 2.578 3.915 5.485 6.713 5.381 2.694-.106 3.713-1.742 6.966-1.742 3.254 0 4.172 1.742 7.02 1.689 2.897-.055 4.733-2.633 6.507-5.228 2.052-2.993 2.895-5.893 2.943-6.047-.063-.022-5.648-2.168-5.705-8.602-.051-5.38 4.394-7.967 4.594-8.092-2.522-3.711-6.417-4.12-7.79-4.222z"/><path d="m28.591 6.788c1.485-1.796 2.486-4.298 2.21-6.788-2.138.085-4.727 1.425-6.261 3.221-1.375 1.591-2.583 4.139-2.254 6.577 2.386.183 4.818-1.213 6.305-3.01z"/></g></svg>