<svg clip-rule="evenodd" fill-rule="evenodd" stroke-linejoin="round" stroke-miterlimit="2" viewBox="0 0 204 33" xmlns="http://www.w3.org/2000/svg"><g fill="#0a0117"><path d="m203.743 6.641-8.557 9.255-.349.029-4.977 5.355-.291-3.405 10.361-11.234zm-12.632 0v19.209h-3.114v-19.209zm4.715 6.868 8.091 12.341h-3.667l-6.898-10.594z" fill-rule="nonzero"/><path d="m174.413 6.641c3.007 0 5.346.834 7.014 2.503 1.688 1.649 2.532 4.016 2.532 7.101s-.844 5.462-2.532 7.131c-1.668 1.649-4.007 2.474-7.014 2.474h-6.782v-19.209zm0 16.56c2.037 0 3.59-.601 4.657-1.804 1.086-1.223 1.63-2.94 1.63-5.152s-.544-3.919-1.63-5.122c-1.067-1.223-2.62-1.834-4.657-1.834h-3.667v13.912z" fill-rule="nonzero"/><path d="m156.088 6.35c1.727 0 3.221.33 4.483.989 1.261.641 2.328 1.591 3.201 2.853l-2.095 2.008c-.738-1.126-1.572-1.931-2.503-2.416-.912-.504-1.999-.757-3.26-.757-.932 0-1.698.126-2.3.379-.601.252-1.047.591-1.338 1.018-.272.408-.408.874-.408 1.397 0 .602.204 1.126.611 1.572.427.446 1.213.796 2.358 1.048l3.9.873c1.863.407 3.182 1.028 3.958 1.863.776.834 1.164 1.892 1.164 3.172 0 1.184-.32 2.212-.96 3.085s-1.533 1.543-2.678 2.009c-1.125.465-2.454.698-3.987.698-1.358 0-2.581-.175-3.667-.524-1.087-.349-2.038-.824-2.853-1.426-.815-.601-1.484-1.29-2.008-2.066l2.154-2.154c.407.679.922 1.29 1.542 1.833.621.524 1.339.932 2.154 1.223.835.291 1.756.436 2.765.436.893 0 1.659-.106 2.3-.32.659-.213 1.154-.524 1.484-.931.349-.427.524-.931.524-1.514 0-.562-.194-1.057-.582-1.484-.369-.427-1.068-.757-2.096-.989l-4.22-.961c-1.164-.252-2.125-.611-2.881-1.077-.757-.466-1.32-1.028-1.689-1.688-.368-.679-.553-1.436-.553-2.27 0-1.087.291-2.067.874-2.94.601-.892 1.465-1.6 2.59-2.124 1.125-.544 2.464-.815 4.016-.815z" fill-rule="nonzero"/><path d="m141.599 7.019v14.465c0 .718.185 1.242.553 1.572.388.33.902.495 1.543.495.524 0 .98-.078 1.368-.233.388-.175.747-.408 1.077-.699l.698 2.271c-.446.388-.999.698-1.659.931-.64.213-1.358.32-2.154.32-.834 0-1.6-.136-2.299-.407-.698-.272-1.242-.709-1.63-1.31-.388-.621-.592-1.426-.611-2.416v-14.116zm5.006 4.279v2.444h-10.914v-2.444z" fill-rule="nonzero"/><path d="m124.2 11.298 4.104 6.228.582.087 5.908 8.237h-3.696l-4.278-6.403-.67-.233-5.704-7.916zm10.507 0-5.705 7.8-.64-.029-4.657 6.781h-3.55l6.199-8.295.611.058 4.162-6.315z" fill-rule="nonzero"/><path d="m112.686 26.141c-1.456 0-2.736-.301-3.842-.902-1.106-.602-1.97-1.465-2.59-2.591-.602-1.144-.903-2.503-.903-4.074 0-1.572.301-2.921.903-4.046.62-1.145 1.474-2.018 2.561-2.619 1.086-.602 2.318-.903 3.696-.903 1.417 0 2.619.291 3.609.874.99.582 1.746 1.377 2.27 2.386s.786 2.154.786 3.434c0 .35-.01.68-.029.99-.019.311-.049.582-.087.815h-11.701v-2.387h10.333l-1.543.466c0-1.319-.33-2.328-.989-3.027-.66-.718-1.562-1.077-2.707-1.077-.834 0-1.562.194-2.183.582-.621.389-1.096.971-1.426 1.747-.33.756-.495 1.688-.495 2.794 0 1.086.175 2.008.524 2.765.349.756.844 1.329 1.484 1.717.641.388 1.397.582 2.27.582.971 0 1.756-.184 2.358-.553.601-.369 1.077-.883 1.426-1.543l2.474 1.165c-.349.698-.825 1.309-1.426 1.833-.582.505-1.281.893-2.096 1.165-.815.271-1.707.407-2.677.407z" fill-rule="nonzero"/><path d="m98.779 7.019v14.465c0 .718.184 1.242.553 1.572.388.33.902.495 1.542.495.524 0 .98-.078 1.368-.233.388-.175.747-.408 1.077-.699l.698 2.271c-.446.388-.999.698-1.659.931-.64.213-1.358.32-2.153.32-.835 0-1.601-.136-2.3-.407-.698-.272-1.241-.709-1.629-1.31-.389-.621-.592-1.426-.612-2.416v-14.116zm5.006 4.279v2.444h-10.915v-2.444z" fill-rule="nonzero"/><path d="m77.262 25.85v-14.552h2.765l.204 3.783-.408-.407c.272-.835.66-1.523 1.164-2.067.524-.562 1.135-.97 1.834-1.222.718-.252 1.475-.379 2.27-.379 1.029 0 1.95.204 2.765.612.834.388 1.494.98 1.979 1.775.485.796.728 1.805.728 3.027v9.43h-3.114v-8.47c0-1.435-.301-2.425-.903-2.968-.582-.563-1.319-.844-2.212-.844-.64 0-1.261.155-1.862.465-.602.291-1.106.767-1.514 1.427-.388.659-.582 1.542-.582 2.648v7.742z" fill-rule="nonzero"/><path d="m66.708 11.006c1.417 0 2.668.301 3.755.903 1.086.601 1.93 1.474 2.532 2.619.621 1.126.931 2.474.931 4.046 0 1.571-.31 2.93-.931 4.074-.602 1.126-1.446 1.989-2.532 2.591-1.087.601-2.338.902-3.755.902-1.416 0-2.668-.301-3.754-.902-1.087-.602-1.941-1.465-2.562-2.591-.62-1.144-.931-2.503-.931-4.074 0-1.572.311-2.92.931-4.046.621-1.145 1.475-2.018 2.562-2.619 1.086-.602 2.338-.903 3.754-.903zm0 2.445c-.873 0-1.62.204-2.241.611-.601.389-1.067.961-1.397 1.718-.33.756-.495 1.688-.495 2.794 0 1.086.165 2.018.495 2.794.33.756.796 1.339 1.397 1.746.621.388 1.368.582 2.241.582s1.611-.194 2.212-.582c.602-.407 1.067-.99 1.397-1.746.33-.776.495-1.708.495-2.794 0-1.106-.165-2.038-.495-2.794-.33-.757-.795-1.33-1.397-1.718-.601-.407-1.339-.611-2.212-.611z" fill-rule="nonzero"/><path d="m57.435 20.757c-.388 1.164-.97 2.153-1.746 2.968-.776.796-1.688 1.397-2.736 1.805-1.047.407-2.202.611-3.463.611-1.844 0-3.444-.398-4.802-1.193-1.359-.796-2.406-1.931-3.144-3.406-.737-1.474-1.106-3.24-1.106-5.297 0-2.056.369-3.822 1.106-5.297.738-1.474 1.785-2.609 3.144-3.405 1.358-.796 2.949-1.193 4.773-1.193 1.261 0 2.396.174 3.405.524 1.028.349 1.902.873 2.62 1.571.717.699 1.27 1.572 1.658 2.62l-2.939 1.309c-.388-1.144-.951-1.979-1.688-2.503-.738-.543-1.698-.815-2.882-.815-1.183 0-2.221.282-3.114.844-.892.563-1.591 1.378-2.095 2.445-.485 1.067-.728 2.367-.728 3.9 0 1.514.233 2.814.699 3.9.465 1.068 1.135 1.882 2.008 2.445s1.921.844 3.143.844c1.184 0 2.202-.301 3.056-.902.873-.621 1.494-1.543 1.863-2.765z" fill-rule="nonzero"/></g><path d="m22.588 7.845c.704.536 1.34 1.158 1.89 1.852l3.791-3.792-1.871-1.87zm1.957 14.917c-.543.699-1.172 1.327-1.871 1.871l3.724 3.724 1.871-1.871zm-14.936 1.804c-.693-.551-1.316-1.186-1.852-1.89l-3.81 3.81 1.871 1.871zm-3.791-20.531 3.876 3.876c-.699.543-1.327 1.172-1.871 1.871l-3.876-3.877z" fill="#4c14bc"/><path d="m21.476 16.272c0-.457-.058-.9-.167-1.323h10.751v2.646h-10.751c.109-.423.167-.866.167-1.323zm-5.292 5.292c.43 0 .847-.052 1.247-.148v10.731h-2.646v-10.77c.446.121.915.187 1.399.187zm-5.292-5.292c0 .457.058.9.167 1.323h-10.75v-2.646h10.75c-.109.423-.167.866-.167 1.323zm5.292-5.292c.43 0 .847.051 1.247.148v-10.732h-2.646v10.771c.446-.122.915-.187 1.399-.187z" fill="#4c14bc"/><path d="m18.83 16.272c0 1.461-1.185 2.646-2.646 2.646s-2.646-1.185-2.646-2.646c0-1.462 1.185-2.646 2.646-2.646s2.646 1.184 2.646 2.646z" fill="#4c14bc" fill-rule="nonzero"/></svg>