<svg width="126" height="20" viewBox="0 0 126 20" fill="none" xmlns="http://www.w3.org/2000/svg">
<path d="M2.92944 2.95861H7.75845C8.70441 3.14209 9.40626 3.60845 9.86398 4.35767C10.3522 5.29037 10.2607 6.28424 9.58935 7.33926C9.14688 7.87442 8.49844 8.2108 7.64401 8.34842H2.92944V2.95861ZM0 -4.57764e-05V19.7243H3.02099V11.3988H7.78133L11.077 19.7473H14.3497L10.665 10.4126C11.0159 10.168 11.2829 9.96918 11.466 9.81628C11.6644 9.66337 11.878 9.43402 12.1068 9.12822C12.351 8.82241 12.534 8.49367 12.6561 8.142C13.2969 6.85762 13.4114 5.47385 12.9994 3.9907C12.6485 2.92039 12.084 2.0412 11.3058 1.35314C10.4361 0.573338 9.34523 0.122276 8.03308 -4.57764e-05H0Z" fill="white"/>
<path d="M21.6962 0.229308V15.0455C22.0318 16.3911 22.8863 17.6066 24.2594 18.6922C25.6631 19.5791 27.0668 20.0149 28.4705 19.9996C30.3472 19.9078 31.8424 19.3191 32.9562 18.2335C34.0853 17.3008 34.7566 16.1617 34.9702 14.8162V0.206373H31.9721V14.3804C31.6365 15.359 30.927 16.1311 29.8437 16.6969C28.5926 17.0944 27.4406 16.995 26.3879 16.3987C25.5945 16.0776 25.0605 15.3666 24.7858 14.2657V0.229308H21.6962Z" fill="white"/>
<path d="M43.667 19.9766H46.6422V6.51359L53.6683 19.9766H56.8266V0.275179H53.8743V13.83L46.8482 0.275179H43.6441L43.667 19.9766Z" fill="white"/>
<path d="M65.5692 0.206373L68.3613 19.9537H71.4509L74.2202 7.31633L77.0123 19.9308H80.1248L82.8254 0.229308H79.8273L78.271 11.33L75.7536 0.252244H72.6868L70.238 11.2841L68.6817 0.206373H65.5692Z" fill="white"/>
<path d="M98.6627 11.0548H94.6347L96.6487 5.18334L98.6627 11.0548ZM104.934 19.9766L98.2965 0.160503H95.1382L88.3639 19.9766H91.6595L93.6277 14.1052H99.6011L101.638 19.9766H104.934Z" fill="white"/>
<path d="M115.965 11.2383L115.919 19.839L118.917 19.8161V11.1465L125.714 0.0458259H122.075L117.407 7.72916L112.646 0.0458259H109.122L115.965 11.2383Z" fill="white"/>
</svg>
