<svg fill="none" height="50" viewBox="0 0 176 50" width="176" xmlns="http://www.w3.org/2000/svg" xmlns:xlink="http://www.w3.org/1999/xlink"><clipPath id="a"><path d="m0 0h176v50h-176z"/></clipPath><g clip-path="url(#a)"><path d="m0 0h176v50h-176z" fill="#fff"/><g fill="#333"><path d="m4.10122 15.1421h6.76058c1.3244.2569 2.307.9098 2.9478 1.9587.6835 1.3058.5553 2.6972-.3845 4.1742-.6195.7493-1.5273 1.2202-2.7235 1.4128h-6.60038zm-4.10122-4.1421v27.6141h4.22938v-11.6557h6.66452l4.6138 11.6878h4.5819l-5.1586-13.0685c.4913-.3425.8651-.6208 1.1214-.8348.2777-.2141.5768-.5352.8972-.9633.3417-.4282.5981-.8884.769-1.3807.8971-1.7982 1.0573-3.7354.4806-5.8119-.4913-1.4984-1.2817-2.7293-2.3711-3.6925-1.2175-1.0918-2.7448-1.7232-4.5818-1.8945z"/><path d="m30.3747 11.3211v20.7427c.4699 1.8838 1.6661 3.5856 3.5885 5.1054 1.9652 1.2416 3.9304 1.8517 5.8955 1.8303 2.6274-.1285 4.7207-.9526 6.28-2.4725 1.5807-1.3058 2.5206-2.9005 2.8196-4.7843v-20.4537h-4.1973v19.8436c-.47 1.37-1.4632 2.4511-2.9798 3.2431-1.7516.5566-3.3643.4174-4.8382-.4174-1.1107-.4496-1.8583-1.445-2.2428-2.9862v-19.651z"/><path d="m61.1338 38.9673h4.1653v-18.8482l9.8365 18.8482h4.4216v-27.582h-4.1332v18.9767l-9.8365-18.9767h-4.4857z"/><path d="m91.7968 11.289 3.909 27.6462h4.3252l3.877-17.6923 3.909 17.6602h4.358l3.781-27.582h-4.198l-2.179 15.541-3.524-15.5089h-4.293l-3.4289 15.4447-2.1787-15.5089z"/><path d="m138.128 26.4768h-5.639l2.819-8.2201zm8.779 12.4905-9.292-27.7425h-4.421l-9.485 27.7425h4.614l2.756-8.22h8.362l2.852 8.22z"/><path d="m162.351 26.7336-.064 12.0411 4.197-.0321v-12.1374l9.516-15.541h-5.094l-6.537 10.7567-6.664-10.7567h-4.935z"/></g></g></svg>