<svg enable-background="new 0 0 176 50" viewBox="0 0 176 50" xmlns="http://www.w3.org/2000/svg"><g fill="#fff"><path d="m4.1 15.1h6.8c1.3.3 2.3.9 2.9 2 .7 1.3.6 2.7-.4 4.2-.6.7-1.5 1.2-2.7 1.4h-6.6zm-4.1-4.1v27.6h4.2v-11.6h6.7l4.6 11.7h4.6l-5.2-13.1c.5-.3.9-.6 1.1-.8.3-.2.6-.5.9-1 .3-.4.6-.9.8-1.4.9-1.8 1.1-3.7.5-5.8-.5-1.5-1.3-2.7-2.4-3.7-1.2-1.1-2.7-1.7-4.6-1.9z"/><path d="m30.4 11.3v20.7c.5 1.9 1.7 3.6 3.6 5.1 2 1.2 3.9 1.9 5.9 1.8 2.6-.1 4.7-1 6.3-2.5 1.6-1.3 2.5-2.9 2.8-4.8v-20.3h-4.2v19.8c-.5 1.4-1.5 2.5-3 3.2-1.8.6-3.4.4-4.8-.4-1.1-.4-1.9-1.4-2.2-3v-19.6z"/><path d="m61.1 39h4.2v-18.9l9.8 18.9h4.4v-27.6h-4.1v19l-9.8-19h-4.5z"/><path d="m91.8 11.3 3.9 27.6h4.3l3.9-17.7 3.9 17.7h4.4l3.8-27.6h-4.2l-2.2 15.5-3.5-15.5h-4.3l-3.4 15.4-2.2-15.5z"/><path d="m138.1 26.5h-5.6l2.8-8.2zm8.8 12.5-9.3-27.7h-4.4l-9.5 27.7h4.6l2.8-8.2h8.4l2.9 8.2z"/><path d="m162.4 26.7-.1 12h4.2v-12.1l9.5-15.5h-5.1l-6.5 10.8-6.7-10.8h-4.9z"/></g></svg>