<svg enable-background="new 0 0 269 47" viewBox="0 0 269 47" xmlns="http://www.w3.org/2000/svg"><g clip-rule="evenodd" fill-rule="evenodd"><path d="m112.6 39.2c.4-.3.7-.7 1-1.2.3-.4.5-.9.5-1.5 0-.7-.2-1.3-.7-1.7-.5-.5-1.1-.9-1.8-1.2s-1.5-.6-2.2-.7c-.8-.2-1.4-.3-1.9-.5-1.4-.3-2.8-.8-4-1.3s-2.3-1.1-3.3-1.8c-.9-.7-1.7-1.6-2.2-2.5-.5-1-.8-2.1-.8-3.5 0-1.2.3-2.4.9-3.5s1.4-2.1 2.4-2.9 2.2-1.5 3.6-2 2.8-.7 4.3-.7c1.3 0 2.6.2 3.8.6s2.3.9 3.3 1.6 1.8 1.5 2.5 2.4 1.1 2 1.3 3.2l-5.6 1.4c-.3-1-.8-1.9-1.7-2.6s-2-1-3.6-1c-.5 0-1.1.1-1.6.2-.6.2-1.1.4-1.6.7s-.9.7-1.2 1.1-.5.9-.5 1.5.2 1.1.5 1.6.8.8 1.3 1.1 1.1.5 1.7.7 1.2.3 1.7.5c2.3.6 4.2 1.2 5.7 1.8s2.7 1.4 3.6 2.1 1.5 1.6 1.9 2.6.5 2 .5 3.1c0 1.4-.3 2.7-.9 3.9s-1.5 2.3-2.6 3.1c-1.1.9-2.4 1.6-3.9 2.1s-3.2.7-4.9.7c-2.7 0-5.1-.7-7.1-2-2.1-1.3-3.5-3.1-4.2-5.3l5.3-2.4c.7 1.5 1.6 2.5 2.6 3.1 1.1.5 2.3.8 3.7.8 1.6-.1 3.1-.6 4.2-1.6zm28.4 6.4c-1.8.6-3.5 1-5.2 1.1s-3.3-.1-4.7-.7-2.5-1.7-3.4-3.3-1.3-3.8-1.3-6.6v-14.4h-5.1v-6.8h1.4c1.7 0 3.2-.4 4.2-2.1.4-.7.5-1.5.6-3.5v-2.3h5.4v7.9h6.3v6.8h-6.3l-.2 15.3c0 1 .1 1.9.4 2.5s.6 1.1 1.2 1.4 1.3.5 2.2.5 2-.1 3.3-.3zm19.8-25.1c-.3-.1-.6-.3-.9-.4s-.6-.2-.9-.3-.7-.1-1.1-.1c-1.2 0-2.4.2-3.5.6s-2 1-2.8 1.6c-.8.7-1.4 1.5-1.8 2.4-.5.9-.7 1.9-.7 2.9l-.1 19h-6.3v-31.5h5l1.3 3.4c.9-1.2 2-2.3 3.4-3 1.4-.8 3.2-1.1 5.3-1.1 1.4 0 3 .2 4.7.6zm16.3 26c-2.2 0-4.3-.4-6.3-1.3-2-.8-3.7-2-5.1-3.5-1.5-1.5-2.6-3.2-3.5-5.2s-1.3-4.1-1.3-6.3.4-4.4 1.2-6.3 1.9-3.7 3.2-5.2c1.4-1.5 2.9-2.6 4.8-3.5 1.8-.8 3.7-1.3 5.8-1.3s4.1.4 5.8 1.1 3.3 1.9 4.7 3.4c1.3 1.6 2.3 3.5 3.1 5.9.7 2.4 1.1 5.2 1.1 8.6h-23c.3 1.1.8 2.2 1.4 3.1.6 1 1.4 1.8 2.3 2.5s1.9 1.3 3 1.6c1.1.4 2.2.6 3.5.6 1.6 0 3.2-.3 4.6-.9s2.6-1.4 3.6-2.4l3.9 3.9c-1.5 1.5-3.3 2.7-5.5 3.6-2.4 1.1-4.8 1.6-7.3 1.6zm-1.2-26.8c-1 0-1.9.2-2.8.6s-1.7.9-2.5 1.6-1.4 1.5-1.9 2.5c-.5.9-.9 2-1.2 3.1h16.3c-.1-1-.3-2-.7-3-.4-.9-.9-1.8-1.6-2.5s-1.5-1.3-2.4-1.7-2-.6-3.2-.6zm48.2-5v31.6h-5.3l-1-4.2c-1.1 1.4-2.5 2.5-4.1 3.2s-3.4 1.1-5.1 1.1c-2.2 0-4.2-.4-6-1.3-1.9-.8-3.5-2-4.9-3.5s-2.5-3.2-3.3-5.2-1.2-4.1-1.2-6.3.4-4.4 1.2-6.3c.8-2 1.9-3.7 3.3-5.2s3-2.6 4.9-3.5c1.9-.8 3.9-1.3 6-1.3 1.7 0 3.4.3 5 1s3 1.7 4.3 3.1l1-3.4zm-15.5 26.2c1.2 0 2.4-.3 3.6-.8s2.1-1.3 2.9-2.3 1.5-2.1 1.9-3.4c.5-1.3.7-2.7.7-4.1 0-1.5-.2-2.8-.7-4.1s-1.1-2.4-1.9-3.4-1.8-1.7-2.9-2.3-2.3-.8-3.6-.8-2.4.3-3.6.8-2.1 1.3-2.9 2.3-1.5 2.1-1.9 3.4c-.5 1.3-.7 2.7-.7 4.1 0 1.5.2 2.8.7 4.1s1.1 2.4 1.9 3.4 1.8 1.7 2.9 2.3 2.4.8 3.6.8zm26.3 5.5h-6.3v-31.7h5l1.3 2.6c.8-.9 1.7-1.7 2.8-2.4s2.4-1 3.9-1c.6 0 1.3.1 2 .2.8.2 1.5.4 2.3.8s1.6.9 2.3 1.5 1.4 1.4 1.9 2.4c.7-1.3 1.8-2.5 3.3-3.5s3.1-1.5 4.7-1.5c1.1 0 2.3.2 3.6.5 1.2.3 2.4 1 3.5 1.9s2 2.3 2.6 3.9c.7 1.7 1 3.9 1 6.5v19.4h-5.9v-19.1c0-2.7-.5-4.5-1.6-5.6s-2.6-1.6-4.4-1.6c-1.4 0-2.6.6-3.6 1.7s-1.6 3-1.6 5.5v19.4h-5.9v-19.4c0-2.7-.5-4.5-1.6-5.6s-2.6-1.6-4.4-1.6c-1.3 0-2.4.5-3.4 1.5s-1.5 2.5-1.7 4.7z"/><path d="m60.3 15.1 29.6-2.1c2-.1 3.2 2.1 2 3.6l-20.6 28.8c-.4.6-1.1 1-1.9 1h-46.4c-.7 0-1.4-.4-1.9-1l-20.7-28.8c-1.1-1.6.1-3.8 2-3.7l29.5 2.1 12.6-14c.9-1 2.5-1 3.5 0zm6.2 26.7-19.2-7.2v7.2zm-21.4 0v-7.2l-19.2 7.2zm-2.3-8.9-19.6 7.3-14.4-20zm6.7 0 19.6 7.3 14.4-20zm-4.4-1.6v-24.2l-16.1 18.1zm2.3 0v-24.2l16 18.1zm-23-7.7 3.7-4.1-18-1.3zm43.5 0-3.7-4.1 18-1.3z" fill="#005fff"/></g></svg>