<svg enable-background="new 0 0 2181.5 529.4" viewBox="0 0 2181.5 529.4" xmlns="http://www.w3.org/2000/svg"><g clip-rule="evenodd" fill="#fff" fill-rule="evenodd"><path d="m1829.8 414h-46.1v-232.8h36.6l9.5 19.5c5.7-6.7 12.5-12.4 20.4-17.4 7.9-4.9 17.6-7.4 29-7.4 4.4 0 9.4.6 15 1.7 5.5 1.1 11.3 3 17.1 5.7 5.9 2.7 11.5 6.3 16.9 10.9s10 10.5 13.8 17.8c5.4-9.8 13.6-18.3 24.5-25.4s22.6-10.7 34.9-10.7c8.2 0 17 1.3 26.2 3.8s17.8 7.3 25.7 14.3 14.4 16.6 19.5 29 7.6 28.4 7.6 48v143h-43.3v-143.4c0-19.7-4-33.4-12.1-41.1-8.1-7.8-18.8-11.7-32.1-11.7-10.1 0-19 4.3-26.6 12.8s-11.4 22-11.4 40.4v143h-43.3v-143.4c0-19.7-4-33.4-12.1-41.1-8.1-7.8-18.8-11.7-32.1-11.7-9.5 0-17.8 3.6-25 10.9-7.1 7.3-11.3 18.7-12.6 34.2zm-193.7-40.2c9.2 0 17.9-2.1 26.2-6.2 8.2-4.1 15.4-9.7 21.4-16.9 6-7.1 10.8-15.5 14.3-25s5.2-19.7 5.2-30.4c0-10.8-1.7-20.9-5.2-30.4s-8.2-17.8-14.3-25c-6-7.1-13.2-12.8-21.4-16.9s-17-6.2-26.2-6.2-17.9 2.1-26.2 6.2c-8.2 4.1-15.4 9.7-21.4 16.9-6 7.1-10.8 15.5-14.3 25s-5.2 19.7-5.2 30.4c0 10.8 1.7 20.9 5.2 30.4s8.2 17.8 14.3 25c6 7.1 13.2 12.8 21.4 16.9 8.3 4.1 17 6.2 26.2 6.2zm114.1-192.6v232.8h-39l-7.1-31.2c-7.9 10.5-18.1 18.4-30.4 23.8-12.4 5.4-24.9 8.1-37.6 8.1-15.9 0-30.7-3.1-44.5-9.3s-25.8-14.7-36.1-25.4c-10.3-10.8-18.5-23.5-24.5-38-6-14.6-9-30.1-9-46.6s3-32 9-46.6 14.2-27.3 24.5-38c10.3-10.8 22.3-19.3 36.1-25.4 13.8-6.2 28.6-9.3 44.5-9.3 12.7 0 24.9 2.5 36.6 7.4s22.2 12.6 31.4 23.1l7.1-25.2h39zm-354.9 36.6c-7.3 0-14.2 1.4-20.7 4.3s-12.5 6.8-18.1 11.9-10.3 11.1-14.3 18.1-6.9 14.6-8.8 22.8h120.3c-.6-7.6-2.4-14.9-5.2-21.9-2.9-7-6.8-13.1-11.9-18.3s-11-9.4-17.8-12.4c-6.7-3-14.6-4.5-23.5-4.5zm8.6 196.8c-16.5 0-31.9-3.1-46.4-9.3-14.4-6.2-27-14.7-37.8-25.4-10.8-10.8-19.3-23.5-25.4-38-6.2-14.6-9.3-30.1-9.3-46.6s2.9-32 8.8-46.6 13.8-27.3 23.8-38c10-10.8 21.6-19.3 34.9-25.4 13.3-6.2 27.6-9.3 42.8-9.3 15.5 0 29.9 2.7 43 8.1 13.2 5.4 24.6 13.8 34.2 25.2 9.7 11.4 17.2 25.9 22.6 43.5s8.1 38.6 8.1 63h-169.2c2.2 8.2 5.7 15.9 10.5 23.1 4.8 7.1 10.4 13.3 16.9 18.5s13.8 9.3 21.9 12.1c8.1 2.9 16.6 4.3 25.4 4.3 12 0 23.2-2.2 33.5-6.7 10.3-4.4 19.1-10.3 26.4-17.6l28.5 28.5c-11.1 11.1-24.6 20-40.7 26.6-16 6.7-33.5 10-52.5 10zm-119.7-191.1c-2.2-1-4.4-1.9-6.7-2.9-1.9-.6-4.1-1.3-6.7-1.9-2.5-.6-5.2-1-8.1-1-9.2 0-17.8 1.5-25.7 4.5s-14.7 7.1-20.4 12.1c-5.7 5.1-10.2 11-13.6 17.8-3.3 6.8-5 14-5 21.6l-.5 140.1h-46.1v-232.6h36.6l9.5 25.2c6.3-9.2 14.7-16.6 25-22.1 10.3-5.6 23.2-8.3 38.8-8.3 10.1 0 21.7 1.4 34.7 4.3zm-145.8 185c-13 4.4-25.8 7.1-38.5 8.1s-24.1-.9-34.2-5.5-18.4-12.7-24.7-24.3-9.5-27.8-9.5-48.7v-105.5h-37.8v-50.2h10.3c12.4 0 23.4-3 31.1-15.6 3.3-5.3 3.7-10.8 4.1-25.5 0-12.1 0-17.4 0-17.4h39.6v58.5h46.7v50.2h-46.7l-1.3 112.7c0 7.6.9 13.6 2.6 18.1 1.7 4.4 4.7 7.8 8.8 10s9.5 3.3 16.2 3.3 14.7-.6 24.2-1.9zm-208.5-47.1c2.9-2.5 5.4-5.4 7.6-8.6s3.3-6.8 3.3-10.9c0-5.1-1.8-9.4-5.5-12.8-3.6-3.5-8.1-6.4-13.3-8.8s-10.7-4.2-16.4-5.5-10.5-2.4-14.3-3.3c-10.5-2.5-20.3-5.6-29.5-9.3-9.2-3.6-17.2-8.1-24-13.3s-12.2-11.4-16.2-18.5-5.9-15.6-5.9-25.4c0-9.2 2.2-17.8 6.7-25.9 4.4-8.1 10.4-15.2 17.8-21.4 7.5-6.2 16.2-11.1 26.2-14.7s20.5-5.5 31.6-5.5c9.8 0 19.2 1.4 28.1 4.3s16.9 6.7 24 11.7c7.1 4.9 13.2 10.9 18.1 17.8 4.9 7 8.2 14.7 9.8 23.3l-41.4 10c-1.9-7.6-6-13.9-12.4-19-6.3-5.1-15.1-7.6-26.2-7.6-3.8 0-7.8.6-11.9 1.7s-7.9 2.8-11.4 5-6.4 4.9-8.8 8.1-3.6 6.8-3.6 10.9c0 4.4 1.3 8.2 4 11.4s5.9 5.8 9.7 7.8c3.8 2.1 7.9 3.7 12.4 5 4.4 1.3 8.6 2.4 12.4 3.3 16.8 4.1 30.7 8.6 41.8 13.3 11.1 4.8 20 10 26.6 15.7 6.7 5.7 11.3 12 14 18.8s4 14.5 4 23.1c0 10.1-2.3 19.7-6.9 28.5-4.6 8.9-10.9 16.6-19 23.1s-17.8 11.6-29 15.2c-11.3 3.6-23.4 5.5-36.4 5.5-19.7 0-37.2-4.8-52.5-14.5-15.4-9.7-25.8-22.6-31.1-38.7l39-17.6c5.1 11.1 11.6 18.6 19.5 22.6s17 5.9 27.1 5.9c12.9-.3 23.5-3.7 32-10.7z"/><path d="m600.5 246.1-27.1-30.5 132.5-9.5zm-320.3 0 27.1-30.5-132.5-9.5zm169.3 56.6v-177.4l117.9 133zm-16.8 0v-177.4l-117.9 133zm32.8 12.3 144.2 53.8 106.1-147.4zm-49.2 0-144.2 53.8-106-147.4zm16.2 65.3v-52.7l-141.1 52.7zm158.1 0-141.1-52.7v52.7zm-45.5-196.7 217.4-15.4c14.4-1 23.4 15.2 15 26.8l-152.1 211.8c-3.2 4.4-8.3 7.1-13.8 7.1h-341c-5.5 0-10.6-2.6-13.8-7.1l-152.5-211.8c-8.4-11.7.6-27.9 15-26.9l216.7 15.5 92.6-103.5c6.8-7.6 18.7-7.5 25.4.1z"/></g></svg>