<svg fill="none" height="47" viewBox="0 0 269 47" width="269" xmlns="http://www.w3.org/2000/svg" xmlns:xlink="http://www.w3.org/1999/xlink"><clipPath id="a"><path d="m0 .000488h269v47h-269z"/></clipPath><g clip-path="url(#a)" clip-rule="evenodd" fill-rule="evenodd"><path d="m112.646 39.2363c.387-.3446.732-.7323 1.034-1.1631.301-.4308.452-.9262.452-1.4862 0-.6892-.248-1.2708-.743-1.7446-.496-.4739-1.099-.8724-1.81-1.1955-.71-.323-1.453-.5707-2.229-.7431-.775-.1723-1.421-.323-1.938-.4523-1.422-.3446-2.757-.7646-4.007-1.26-1.249-.4954-2.337-1.0985-3.263-1.8093-.9259-.7108-1.6582-1.5508-2.1967-2.52-.5384-.9693-.8077-2.1216-.8077-3.457 0-1.2493.3016-2.4232.9047-3.5217.6031-1.0984 1.4108-2.0677 2.4227-2.9077 1.013-.84 2.197-1.5077 3.554-2.0031s2.79-.7431 4.297-.7431c1.336 0 2.607.1938 3.813.5815s2.294.9154 3.263 1.5831 1.788 1.4755 2.455 2.4232c.668.9477 1.11 2.0031 1.325 3.1662l-5.622 1.357c-.258-1.0339-.818-1.8955-1.68-2.5847-.861-.6893-2.046-1.0339-3.554-1.0339-.517 0-1.055.0754-1.615.2262-.56.1507-1.077.3769-1.551.6784-.474.3016-.872.6677-1.195 1.0985s-.485.9262-.485 1.4862c0 .6031.183 1.12.549 1.5508s.808.7862 1.325 1.0662 1.077.5062 1.68.6785 1.163.3231 1.68.4523c2.283.56 4.179 1.1631 5.686 1.8093 1.508.6461 2.714 1.3569 3.619 2.1323s1.54 1.6262 1.906 2.5524.549 1.9708.549 3.1339c0 1.3785-.312 2.6708-.937 3.877-.624 1.2062-1.486 2.2508-2.584 3.1339-1.099.8831-2.413 1.5724-3.942 2.0678s-3.177.7431-4.943.7431c-2.671 0-5.051-.657-7.14-1.9708-2.0896-1.3139-3.5004-3.0693-4.2327-5.2663l5.2987-2.3908c.689 1.5077 1.572 2.5308 2.649 3.0693 1.077.5384 2.305.8077 3.683.8077 1.723 0 3.167-.4739 4.33-1.4216zm28.33 6.3971c-1.767.6031-3.511.9692-5.234 1.0985-1.724.1292-3.274-.1185-4.653-.7431-1.378-.6247-2.498-1.7231-3.36-3.2955-.861-1.5724-1.292-3.7801-1.292-6.6232v-14.3421h-5.136v-6.8237h1.403c1.679 0 3.176-.4101 4.233-2.1143.448-.7228.507-1.4621.561-3.46602v-2.36634h5.381v7.94666h6.344v6.8237h-6.344l-.174 15.3113c0 1.0339.118 1.8524.355 2.4555s.635 1.0554 1.195 1.3569c.56.3016 1.293.4523 2.197.4523.905 0 2.003-.0861 3.296-.2584zm19.818-25.136c-.301-.1292-.603-.2585-.904-.3877-.259-.0861-.56-.1723-.905-.2585-.344-.0861-.711-.1292-1.098-.1292-1.25 0-2.413.2046-3.49.6139-1.077.4092-2.003.9584-2.778 1.6477-.776.6892-1.389 1.4969-1.842 2.4231-.452.9262-.678 1.9062-.678 2.9401l-.065 19.0436h-6.268v-31.6439h4.976l1.292 3.4247c.862-1.2493 1.993-2.2508 3.393-3.0047 1.4-.7538 3.155-1.1308 5.266-1.1308 1.378 0 2.951.1939 4.717.5816zm16.265 25.976c-2.24 0-4.34-.42-6.3-1.26-1.96-.8401-3.672-1.9924-5.137-3.457-1.464-1.4647-2.617-3.1878-3.457-5.1694s-1.26-4.0924-1.26-6.3324c0-2.2401.399-4.3509 1.196-6.3325s1.874-3.7047 3.23-5.1693c1.357-1.4647 2.941-2.617 4.75-3.457 1.809-.8401 3.748-1.2601 5.815-1.2601 2.111 0 4.06.3662 5.848 1.0985s3.339 1.8739 4.653 3.4247c1.313 1.5508 2.337 3.5216 3.069 5.9124.732 2.3909 1.098 5.2448 1.098 8.5618h-23.003c.301 1.12.775 2.1646 1.421 3.1339.647.9693 1.411 1.8093 2.294 2.5201.883.7107 1.874 1.26 2.973 1.6477 1.098.3877 2.25.5815 3.457.5815 1.637 0 3.155-.3015 4.555-.9046s2.596-1.4 3.586-2.3908l3.877 3.877c-1.507 1.5077-3.349 2.7139-5.524 3.6185-2.176.9047-4.556 1.357-7.141 1.357zm-1.163-26.7514c-.99 0-1.927.1939-2.81.5816-.884.3877-1.702.9261-2.456 1.6154-.754.6892-1.4 1.5077-1.938 2.4554-.539.9477-.937 1.9816-1.196 3.1016h16.348c-.086-1.0338-.323-2.0246-.711-2.9723-.387-.9478-.926-1.777-1.615-2.4878s-1.497-1.2708-2.423-1.68c-.926-.4093-1.992-.6139-3.199-.6139zm48.232-4.9755v31.6439h-5.298l-.97-4.2463c-1.077 1.4215-2.455 2.4985-4.135 3.2308s-3.382 1.0985-5.105 1.0985c-2.154 0-4.168-.42-6.042-1.26-1.873-.8401-3.51-1.9924-4.91-3.457-1.4-1.4647-2.51-3.1878-3.328-5.1694-.819-1.9816-1.228-4.0924-1.228-6.3324 0-2.2401.409-4.3509 1.228-6.3325.818-1.9816 1.928-3.7047 3.328-5.1693 1.4-1.4647 3.037-2.617 4.91-3.457 1.874-.8401 3.888-1.2601 6.042-1.2601 1.723 0 3.382.3339 4.976 1.0016s3.015 1.7123 4.264 3.1339l.97-3.4247zm-15.508 26.1698c1.249 0 2.434-.28 3.554-.84s2.089-1.3246 2.908-2.2939c.818-.9692 1.465-2.1 1.938-3.3924.474-1.2923.711-2.6708.711-4.1354 0-1.4647-.237-2.8432-.711-4.1355-.473-1.2924-1.12-2.4232-1.938-3.3924-.819-.9693-1.788-1.7339-2.908-2.2939s-2.305-.84-3.554-.84-2.434.28-3.554.84-2.089 1.3246-2.908 2.2939c-.818.9692-1.464 2.1-1.938 3.3924-.474 1.2923-.711 2.6708-.711 4.1355 0 1.4646.237 2.8431.711 4.1354.474 1.2924 1.12 2.4232 1.938 3.3924.819.9693 1.788 1.7339 2.908 2.2939s2.305.84 3.554.84zm26.327 5.4741h-6.268v-31.6439h4.976l1.292 2.6493c.775-.9046 1.702-1.6908 2.778-2.3585 1.077-.6677 2.391-1.0016 3.942-1.0016.603 0 1.282.0754 2.036.2262.753.1508 1.529.4092 2.326.7754.797.3661 1.561.8615 2.294 1.4862.732.6246 1.357 1.4323 1.874 2.4231.732-1.3354 1.841-2.4877 3.327-3.457s3.07-1.4539 4.75-1.4539c1.12 0 2.304.1723 3.554.517 1.249.3446 2.412.9907 3.489 1.9385 1.077.9477 1.96 2.2615 2.649 3.9416.689 1.68 1.034 3.8555 1.034 6.5263v19.4313h-5.88v-19.4959c0-2.6709-.549-4.534-1.648-5.5894-1.098-1.0554-2.552-1.5831-4.361-1.5831-1.379 0-2.585.5816-3.619 1.7447s-1.551 2.9939-1.551 5.4924v19.4313h-5.88v-19.4959c0-2.6709-.549-4.534-1.648-5.5894-1.098-1.0554-2.552-1.5831-4.361-1.5831-1.293 0-2.423.4954-3.393 1.4862-.969.9908-1.54 2.5416-1.712 4.6524z" fill="#000"/><path d="m60.3457 15.0698 29.5463-2.0945c1.9503-.1382 3.1782 2.0597 2.038 3.6479l-20.6689 28.7896c-.4334.6037-1.1313.9618-1.8746.9618h-46.3499c-.7422 0-1.4391-.357-1.873-.9595l-20.723747-28.7896c-1.143027-1.588.084925-3.7889 2.036817-3.6502l29.45633 2.0948 12.5811-14.06552c.9219-1.0306438 2.5374-1.0246437 3.4517.01315zm6.1875 26.7403-19.1753-7.1662v7.1662zm-21.483 0v-7.1662l-19.1753 7.1662zm-2.2127-8.8781-19.5916 7.3132-14.41324-20.0349zm6.6932 0 19.5916 7.3132 14.4132-20.0349zm-4.4621-1.6722v-24.11316l-16.0189 18.08306zm2.2893 0v-24.11016l16.0192 18.08006zm-23.0059-7.697 3.6857-4.1415-18.0066-1.2905zm43.5301 0-3.6855-4.1415 18.0067-1.2905z" fill="#005fff"/></g></svg>