<svg height="182" viewBox="0 0 182 182" width="182" xmlns="http://www.w3.org/2000/svg" xmlns:xlink="http://www.w3.org/1999/xlink"><linearGradient id="a"><stop offset="0" stop-color="#f88a36"/><stop offset="1" stop-color="#fd2020"/></linearGradient><linearGradient id="b" x1="100%" x2="0%" xlink:href="#a" y1="0%" y2="100%"/><linearGradient id="c" x1="50%" x2="50%" xlink:href="#a" y1="0%" y2="100%"/><g fill="none" fill-rule="evenodd"><g fill="#fdfafa" stroke="url(#b)" stroke-width="5"><path d="m29.01 29.01h123v123h-123z" transform="matrix(.25881905 .96592583 -.96592583 .25881905 154.510235 -20.341658)"/><path d="m29.01 29.01h123v123h-123z" transform="matrix(.5 .8660254 -.8660254 .5 123.638959 -33.128959)"/><path d="m29.01 29.01h123v123h-123z" transform="matrix(.70710678 .70710678 -.70710678 .70710678 90.51 -37.49047)"/><path d="m29.01 29.01h123v123h-123z" transform="matrix(.8660254 .5 -.5 .8660254 57.381041 -33.128959)"/><path d="m29.01 29.01h123v123h-123z" transform="matrix(.96592583 .25881905 -.25881905 .96592583 26.509765 -20.341658)"/><path d="m29.01 29.01h123v123h-123z"/></g><path d="m113.166 124.911c-11.426 6.683-27.136 7.37-42.942.511-12.798-5.512-23.417-15.162-30.224-26.187 3.267 2.756 7.08 4.962 11.164 6.89 16.323 7.747 32.642 7.216 44.127.02a.106.106 0 0 1 -.017-.02c-16.337-12.68-30.224-29.22-40.57-42.726-2.18-2.206-3.813-4.962-5.447-7.443 12.525 11.578 32.403 26.187 39.48 30.324-14.972-15.99-28.315-35.837-27.771-35.286 23.689 24.258 45.745 38.042 45.745 38.042.73.416 1.293.763 1.746 1.073.477-1.23.896-2.506 1.248-3.83 3.812-14.058-.543-30.048-10.074-43.279 22.054 13.507 35.125 38.868 29.678 60.095a36.425 36.425 0 0 1 -.463 1.693c.064.076.127.156.19.238 10.89 13.783 7.897 28.392 6.535 25.636-5.907-11.704-16.844-8.125-22.404-5.75z" fill="url(#c)" fill-rule="nonzero"/></g></svg>